<svg xmlns="http://www.w3.org/2000/svg" width="510" height="489" viewBox="0 0 510 489" version="1.1"><path d="M 239.500 57.964 C 236.129 58.317, 242.263 58.599, 253.500 58.608 C 266.462 58.618, 271.213 58.379, 267 57.929 C 259.179 57.093, 247.686 57.107, 239.500 57.964 M 228.250 59.689 C 229.213 59.941, 230.787 59.941, 231.750 59.689 C 232.713 59.438, 231.925 59.232, 230 59.232 C 228.075 59.232, 227.287 59.438, 228.250 59.689 M 275.250 59.689 C 276.212 59.941, 277.788 59.941, 278.750 59.689 C 279.712 59.438, 278.925 59.232, 277 59.232 C 275.075 59.232, 274.288 59.438, 275.250 59.689 M 215.170 61.675 C 211.689 62.499, 209.020 63.353, 209.240 63.573 C 209.459 63.793, 213.433 63.116, 218.069 62.070 C 222.706 61.024, 225.375 60.170, 224 60.173 C 222.625 60.175, 218.652 60.851, 215.170 61.675 M 288.500 62.058 C 292.900 63.090, 296.950 63.792, 297.500 63.619 C 298.759 63.221, 284.744 59.968, 282.303 60.091 C 281.311 60.141, 284.100 61.026, 288.500 62.058 M 196.500 67.423 C 185.659 71.425, 178 74.744, 178 75.440 C 178 76.027, 182.109 74.554, 185.317 72.816 C 186.518 72.166, 192.225 69.939, 198 67.869 C 203.775 65.798, 207.825 64.103, 207 64.102 C 206.175 64.101, 201.450 65.595, 196.500 67.423 M 305.424 66.567 C 309.232 67.898, 312.520 68.814, 312.730 68.604 C 313.191 68.142, 301.054 63.969, 299.556 64.074 C 298.975 64.115, 301.616 65.237, 305.424 66.567 M 325.500 74.792 C 348.053 85.950, 366.288 99.994, 380.711 117.313 C 393.290 132.416, 397.645 139.693, 409.851 166 L 411.011 168.500 410.443 166 C 409.250 160.741, 396.741 137.116, 390.749 128.804 C 378.472 111.774, 362.798 96.465, 346.503 85.589 C 339.095 80.644, 320.205 70.709, 316 69.546 C 314.625 69.166, 318.900 71.526, 325.500 74.792 M 171.001 79.067 C 167.977 80.733, 165.052 82.575, 164.501 83.159 C 163.435 84.289, 174.844 78.254, 176.450 76.838 C 178.138 75.350, 176.617 75.972, 171.001 79.067 M 245.314 79.950 C 242.201 81.848, 239.351 85.684, 240.328 86.661 C 240.597 86.930, 241.124 86.186, 241.498 85.006 C 242.315 82.431, 247.608 79.009, 250.782 79.004 C 255.175 78.997, 260.010 81.799, 261.493 85.213 C 262.279 87.021, 262.939 87.813, 262.961 86.973 C 263.064 82.958, 256.325 77.995, 250.782 78.004 C 249.527 78.006, 247.066 78.882, 245.314 79.950 M 215.500 83.029 C 213.782 83.829, 213.922 83.942, 216.500 83.829 C 221.638 83.605, 223.181 83.956, 222.754 85.250 C 222.527 85.938, 220.802 86.778, 218.921 87.118 L 215.500 87.737 219.143 87.868 C 222.750 87.999, 225.139 85.711, 223.283 83.904 C 221.900 82.557, 217.561 82.070, 215.500 83.029 M 280.912 84.280 C 276.810 87.045, 275.034 90.307, 275.015 95.115 C 274.982 103.082, 285.255 109.610, 292.078 105.958 C 295.317 104.225, 292.814 101.004, 288.215 100.985 C 283.940 100.967, 282.746 100.348, 281.153 97.322 C 277.960 91.255, 285.881 85.426, 291.741 89.531 C 293.550 90.798, 294.279 90.842, 295.966 89.789 C 298.429 88.251, 298.181 87.143, 294.945 85.213 L 292.500 83.754 294.828 85.690 C 296.885 87.401, 296.977 87.774, 295.621 88.900 C 294.365 89.942, 293.674 89.885, 291.820 88.587 C 287.353 85.458, 282.033 87.152, 280.064 92.331 C 278.087 97.532, 281.667 102, 287.812 102 C 291.346 102, 293.947 104.423, 291.444 105.383 C 288.743 106.420, 285.047 106.076, 282.011 104.506 C 270.870 98.745, 276.485 81.460, 288.871 83.388 C 291.502 83.797, 291.950 83.703, 290.500 83.047 C 287.170 81.538, 284.466 81.886, 280.912 84.280 M 246 85 C 244.762 86.238, 244 88.333, 244 90.500 C 244 95.021, 246.910 98, 251.326 98 C 258.102 98, 261.552 89.746, 256.686 85.174 C 255.413 83.978, 254.002 83, 253.551 83 C 253.099 83, 253.916 83.933, 255.365 85.073 C 260.615 89.202, 257.919 97, 251.243 97 C 247.266 97, 244.996 94.696, 245.015 90.679 C 245.033 87.027, 245.702 85.782, 248.500 84.195 C 249.600 83.571, 249.938 83.047, 249.250 83.030 C 248.563 83.014, 247.100 83.900, 246 85 M 153.927 90.139 C 140.183 100.151, 118.591 123.031, 112.535 134 C 111.018 136.748, 113.523 133.717, 119.560 125.500 C 127.094 115.247, 143.247 99.094, 153.500 91.560 C 162.288 85.103, 163.656 84, 162.877 84 C 162.590 84, 158.562 86.762, 153.927 90.139 M 210.073 86.635 C 207.625 89.747, 207.460 91.905, 209.470 94.559 C 210.800 96.316, 210.828 96.195, 209.761 93.278 C 208.722 90.438, 208.848 89.697, 210.821 87.028 C 213.568 83.312, 212.944 82.985, 210.073 86.635 M 263.079 90.515 C 263.036 91.623, 262.045 94.311, 260.878 96.488 C 259.363 99.315, 259.206 100.074, 260.327 99.143 C 262.205 97.585, 264.366 91.489, 263.659 89.741 C 263.384 89.059, 263.122 89.407, 263.079 90.515 M 314.406 92.152 C 314.013 92.788, 314.119 93.044, 314.643 92.720 C 315.167 92.397, 316.245 92.533, 317.038 93.024 C 318.235 93.763, 317.835 95.219, 314.691 101.575 C 312.606 105.787, 311.082 109.416, 311.305 109.638 C 311.765 110.098, 319 95.378, 319 93.982 C 319 92.367, 315.207 90.856, 314.406 92.152 M 219.500 92.909 C 222.250 93.253, 225.175 93.898, 226 94.342 C 226.825 94.785, 226.626 94.440, 225.559 93.574 C 224.349 92.593, 221.901 92.053, 219.059 92.141 L 214.500 92.282 219.500 92.909 M 240.004 94.615 C 239.996 96.836, 244.109 100.881, 247.519 102.006 C 251.036 103.167, 256.514 102.596, 257.523 100.963 C 257.823 100.478, 256.661 100.571, 254.941 101.170 C 250.313 102.784, 244.433 100.757, 241.956 96.696 C 240.884 94.938, 240.006 94.002, 240.004 94.615 M 308.725 103.514 C 304.283 112.457, 304.138 113.004, 305.953 113.975 C 308.362 115.264, 310 115.287, 310 114.031 C 310 113.499, 309.329 113.320, 308.508 113.635 C 305.451 114.808, 305.988 110.980, 309.998 103.005 C 312.268 98.488, 313.966 94.632, 313.769 94.436 C 313.573 94.240, 311.303 98.325, 308.725 103.514 M 214.264 96.718 C 215.784 96.947, 218.034 96.941, 219.264 96.704 C 220.494 96.467, 219.250 96.279, 216.500 96.286 C 213.750 96.294, 212.744 96.488, 214.264 96.718 M 227.150 98.677 C 226.930 103.347, 222.915 106.179, 217.056 105.797 C 211.486 105.434, 211.442 103.708, 216.983 102.930 C 221.718 102.265, 223.375 100.941, 222.710 98.356 C 222.314 96.817, 222.212 96.881, 222.116 98.731 C 221.992 101.117, 218.502 102.626, 215.140 101.747 C 214.022 101.454, 212.829 102.044, 212.064 103.269 C 210.419 105.904, 212.036 106.964, 217.734 106.985 C 223.504 107.006, 228.383 102.856, 227.738 98.477 L 227.300 95.500 227.150 98.677 M 327.159 110.660 C 323.672 115.417, 320.611 119.851, 320.357 120.513 C 320.103 121.174, 322.956 123.997, 326.697 126.785 C 333.111 131.564, 333.605 131.759, 335.333 130.197 C 337.103 128.597, 337.085 128.470, 334.815 126.520 C 333.522 125.409, 331.122 123.515, 329.482 122.311 C 326.674 120.250, 326.599 120.021, 328.196 118.401 C 329.798 116.774, 330.083 116.826, 333.379 119.340 C 335.297 120.803, 337.210 122, 337.630 122 C 338.050 122, 336.487 120.597, 334.155 118.883 C 330.069 115.878, 329.846 115.829, 327.958 117.538 C 326.881 118.512, 326 119.652, 326 120.070 C 326 120.488, 328.264 122.492, 331.032 124.524 C 334.992 127.430, 335.826 128.505, 334.945 129.567 C 334.036 130.662, 332.626 130.029, 327.457 126.208 C 323.954 123.619, 321.205 121.093, 321.346 120.595 C 322.139 117.806, 333.689 103.166, 334.802 103.540 C 335.518 103.780, 335.829 103.532, 335.493 102.989 C 334.377 101.183, 333.547 101.947, 327.159 110.660 M 164 108.114 C 160.425 110.905, 157.329 113.354, 157.120 113.557 C 156.675 113.989, 170.955 133, 171.724 133 C 172.011 133, 171.818 132.438, 171.296 131.750 C 170.774 131.063, 167.504 126.777, 164.030 122.226 C 160.556 117.676, 157.891 113.818, 158.107 113.653 C 170.124 104.486, 170.816 104.074, 171.928 105.413 C 172.831 106.501, 172.036 107.538, 168.054 110.460 C 163.138 114.069, 163.074 114.183, 164.637 116.569 C 166.597 119.560, 166.545 119.561, 170.182 116.500 C 173.487 113.719, 174.546 113.456, 175.594 115.152 C 176.254 116.220, 175.597 116.931, 170.664 120.486 C 168.927 121.738, 168.919 121.947, 170.520 124.390 L 172.212 126.972 176.688 123.757 C 179.150 121.989, 181.444 120.090, 181.787 119.536 C 182.129 118.983, 180.157 120.182, 177.406 122.202 C 172.686 125.667, 172.337 125.769, 171.236 124.006 C 170.233 122.400, 170.591 121.717, 173.785 119.134 C 177.304 116.288, 177.409 116.037, 175.782 114.382 C 174.148 112.721, 173.882 112.765, 170.358 115.272 C 167.005 117.657, 166.540 117.753, 165.461 116.277 C 164.452 114.897, 165.016 114.055, 169.130 110.803 C 173.483 107.362, 173.862 106.752, 172.755 104.980 C 172.075 103.891, 171.290 103.009, 171.009 103.020 C 170.729 103.031, 167.575 105.323, 164 108.114 M 339.929 106.685 C 341.814 108.233, 344.289 110.256, 345.429 111.179 C 347.029 112.476, 347.231 113.132, 346.316 114.063 C 345.396 114.999, 344.035 114.462, 340.206 111.651 L 335.279 108.034 333.389 110.125 C 331.520 112.193, 331.537 112.247, 335 115.171 C 336.925 116.796, 338.355 118.661, 338.179 119.313 C 337.960 120.119, 338.282 120.079, 339.179 119.188 C 340.273 118.101, 340.227 117.721, 338.910 116.978 C 338.035 116.484, 336.250 115.213, 334.942 114.154 C 332.905 112.504, 332.756 111.999, 333.902 110.618 C 335.109 109.164, 335.726 109.363, 340.194 112.643 C 344.723 115.967, 345.286 116.143, 346.739 114.690 C 348.700 112.729, 347.924 111.653, 341.295 107.137 C 337.433 104.506, 337.167 104.418, 339.929 106.685 M 183.664 120.825 C 184.011 122.149, 182.610 123.809, 178.571 126.859 C 175.507 129.172, 173 131.302, 173 131.591 C 173 131.880, 175.700 130.039, 179 127.500 C 184.675 123.134, 186.152 120.830, 184.093 119.558 C 183.595 119.249, 183.402 119.820, 183.664 120.825 M 235.557 122.868 C 233.938 123.216, 241.991 123.500, 253.452 123.500 C 264.914 123.500, 272.538 123.188, 270.396 122.808 C 265.603 121.956, 239.597 122.001, 235.557 122.868 M 222.150 126.123 C 213.051 129.004, 214.973 129.290, 224.502 126.472 C 228.901 125.171, 231.600 124.108, 230.500 124.110 C 229.400 124.111, 225.643 125.017, 222.150 126.123 M 358.250 124.662 C 356.491 125.372, 356.689 126.755, 359.016 130.023 L 361.033 132.855 354.016 138.627 C 350.157 141.801, 347 144.673, 347 145.008 C 347 145.343, 347.618 146.462, 348.372 147.495 C 349.667 149.265, 350.161 149.022, 357.122 143.183 L 364.500 136.994 367.010 139.921 C 368.979 142.219, 369.894 142.639, 371.260 141.875 C 372.217 141.339, 373 140.435, 373 139.867 C 373 138.648, 361.016 123.963, 360.115 124.079 C 359.777 124.122, 358.938 124.385, 358.250 124.662 M 284.460 127.011 C 287.738 128.057, 290.575 128.759, 290.764 128.569 C 291.268 128.065, 281.918 124.991, 280.072 125.054 C 279.207 125.083, 281.182 125.964, 284.460 127.011 M 358.513 125.979 C 358.181 126.517, 358.914 128.317, 360.143 129.980 C 362.203 132.766, 362.248 133.101, 360.709 134.251 C 356.535 137.375, 348.094 144.549, 348.064 145 C 348.046 145.275, 348.421 146.116, 348.898 146.870 C 349.568 147.927, 351.446 146.854, 357.127 142.166 L 364.487 136.092 367.250 138.739 C 369.284 140.688, 370.308 141.092, 371.129 140.271 C 371.951 139.449, 370.709 137.286, 366.423 132.077 C 360.540 124.925, 359.608 124.207, 358.513 125.979 M 236.660 128.048 C 223.037 130.334, 206.490 137.482, 194.856 146.107 C 187.808 151.332, 176.979 162.263, 173.137 168.032 C 171.706 170.181, 172.452 169.598, 175.098 166.500 C 187.605 151.859, 197.788 143.781, 212.327 136.968 C 225.247 130.914, 234.420 128.788, 251 128.007 L 265.500 127.323 253.500 127.279 C 246.900 127.255, 239.322 127.601, 236.660 128.048 M 145.250 128.631 C 147.699 129.353, 147.449 130.397, 144.001 133.845 C 142.131 135.715, 141.231 137.437, 141.608 138.422 C 142.459 140.639, 144.334 140.392, 148.595 137.500 C 150.621 136.125, 152.791 135, 153.417 135 C 155.397 135, 159 138.048, 159 139.723 C 159 140.609, 159.266 141.067, 159.591 140.742 C 160.851 139.482, 158.797 136.159, 156.057 135.024 C 153.024 133.767, 150.507 134.507, 146.787 137.750 C 145.845 138.571, 144.363 138.970, 143.494 138.636 C 142.211 138.144, 142.128 137.629, 143.056 135.895 C 143.684 134.721, 145.077 133.531, 146.152 133.250 C 148.765 132.567, 148.240 128.596, 145.500 128.318 C 143.942 128.160, 143.887 128.229, 145.250 128.631 M 273.500 129.811 C 277.900 130.812, 284.117 132.619, 287.315 133.826 C 290.514 135.033, 292.878 135.612, 292.569 135.112 C 291.681 133.675, 276.696 129.145, 270.826 128.540 C 266.366 128.080, 266.801 128.286, 273.500 129.811 M 139.589 132.077 C 136.432 135.828, 136.143 140.914, 138.942 143.448 C 140.010 144.414, 141.473 144.970, 142.192 144.682 C 143.057 144.335, 142.919 144.131, 141.785 144.079 C 137.552 143.884, 136.821 136.555, 140.589 132.077 C 142.013 130.385, 142.953 129, 142.678 129 C 142.403 129, 141.013 130.385, 139.589 132.077 M 211.105 130.085 C 209.787 130.612, 208.960 131.294, 209.266 131.600 C 209.573 131.906, 211.100 131.464, 212.662 130.618 C 215.803 128.916, 214.846 128.588, 211.105 130.085 M 294 130.500 C 295.375 131.286, 296.950 131.929, 297.500 131.929 C 298.050 131.929, 297.375 131.286, 296 130.500 C 294.625 129.714, 293.050 129.071, 292.500 129.071 C 291.950 129.071, 292.625 129.714, 294 130.500 M 300.384 133.197 C 301.421 133.914, 305.696 136.697, 309.884 139.381 C 318.239 144.736, 332.697 158.647, 338.070 166.500 C 339.952 169.250, 343.393 175.100, 345.717 179.500 C 350.611 188.767, 351.512 188.941, 346.863 179.721 C 337.726 161.599, 320.808 143.776, 304.500 135.089 C 301.200 133.332, 299.348 132.480, 300.384 133.197 M 198 137.408 C 184.890 146.124, 172.487 158.788, 164.310 171.808 C 159.840 178.927, 154.429 190.762, 155.263 191.597 C 155.492 191.825, 156.886 188.937, 158.361 185.178 C 162.437 174.787, 170.320 163.523, 180.922 152.938 C 189.150 144.725, 193.433 141.356, 204.611 134.309 C 205.650 133.654, 206.050 133.111, 205.500 133.102 C 204.950 133.093, 201.575 135.031, 198 137.408 M 244.500 134.919 C 240.293 135.360, 242.766 135.573, 252.775 135.632 C 260.626 135.678, 266.926 135.613, 266.775 135.486 C 265.951 134.797, 249.631 134.382, 244.500 134.919 M 109.757 138.250 C 107.603 141.542, 102.621 151.673, 103.734 150.500 C 104.910 149.261, 112.100 136, 111.596 136 C 111.395 136, 110.567 137.012, 109.757 138.250 M 233.500 136.506 C 232.950 136.698, 229.864 137.589, 226.643 138.486 C 223.421 139.384, 220.946 140.275, 221.143 140.467 C 221.339 140.659, 225.325 139.766, 230 138.482 C 234.675 137.199, 237.600 136.151, 236.500 136.153 C 235.400 136.156, 234.050 136.315, 233.500 136.506 M 294 136.213 C 295.256 137.550, 301 139.953, 301 139.142 C 301 138.642, 300.212 138.007, 299.250 137.730 C 298.288 137.453, 296.600 136.879, 295.500 136.454 C 294.400 136.029, 293.725 135.921, 294 136.213 M 277.465 138.541 C 280.196 139.290, 282.601 139.732, 282.809 139.524 C 283.309 139.024, 275.923 136.987, 274 137.095 C 273.175 137.141, 274.734 137.792, 277.465 138.541 M 148.100 142.018 C 145.679 143.658, 144.080 145, 144.546 145 C 145.011 145, 147.153 143.780, 149.305 142.289 C 153.100 139.659, 153.259 139.634, 154.609 141.480 C 155.374 142.526, 156 142.936, 156 142.391 C 156 141.326, 153.955 138.988, 153.050 139.018 C 152.748 139.028, 150.520 140.378, 148.100 142.018 M 290.500 143.286 C 294.350 145.137, 299.525 147.878, 302 149.377 C 305.374 151.422, 305.874 151.562, 304 149.939 C 301.207 147.521, 289.855 141.626, 286 140.592 C 284.625 140.223, 286.650 141.436, 290.500 143.286 M 307.584 144.131 C 325.566 156.688, 336.865 170.874, 345.202 191.362 C 346.800 195.288, 347.840 197.150, 347.513 195.500 C 346.359 189.668, 336.978 172.394, 330.574 164.307 C 324.310 156.397, 314.515 147.383, 306.770 142.400 C 300.638 138.455, 301.217 139.685, 307.584 144.131 M 216 142.500 C 214.625 143.286, 213.950 143.929, 214.500 143.929 C 215.050 143.929, 216.625 143.286, 218 142.500 C 219.375 141.714, 220.050 141.071, 219.500 141.071 C 218.950 141.071, 217.375 141.714, 216 142.500 M 209.750 145.572 C 206.012 147.600, 206.239 148.445, 210 146.500 C 211.650 145.647, 213 144.735, 213 144.474 C 213 143.831, 212.893 143.867, 209.750 145.572 M 252.750 144.732 C 255.088 144.943, 258.913 144.943, 261.250 144.732 C 263.587 144.522, 261.675 144.349, 257 144.349 C 252.325 144.349, 250.412 144.522, 252.750 144.732 M 240.324 146.638 C 238.028 147.451, 234.021 149.990, 231.422 152.278 C 226.759 156.382, 221 163.495, 221 165.150 C 221 165.618, 223.363 165.929, 226.250 165.843 L 231.500 165.686 226.669 165.093 L 221.838 164.500 224.787 160.441 C 229.496 153.959, 235.879 149.115, 242.465 147.027 C 245.784 145.974, 247.600 145.123, 246.500 145.135 C 245.400 145.148, 242.621 145.824, 240.324 146.638 M 266.083 145.359 C 266.313 145.557, 267.850 146.021, 269.500 146.390 C 271.691 146.880, 272.095 146.787, 271 146.046 C 269.650 145.132, 265.080 144.494, 266.083 145.359 M 155.234 149.029 C 153.438 150.663, 152.341 152, 152.797 152 C 153.253 152, 154.919 150.650, 156.500 149 C 160.175 145.164, 159.466 145.180, 155.234 149.029 M 275.500 148.655 C 282.552 152.357, 288.723 160.036, 292.029 169.224 C 293.073 172.126, 293.944 173.563, 293.964 172.417 C 294.018 169.281, 294.911 168.936, 298.781 170.553 C 300.720 171.363, 302.482 171.852, 302.695 171.638 C 302.908 171.425, 301.194 170.494, 298.884 169.570 C 295.913 168.381, 294.485 168.215, 294 169 C 293.616 169.621, 292.544 168.094, 291.568 165.538 C 288.880 158.500, 277.362 146.837, 273.300 147.040 C 272.860 147.062, 273.850 147.789, 275.500 148.655 M 148.583 150 C 149.324 152.785, 149.797 153.536, 150.418 152.915 C 150.648 152.685, 150.179 151.373, 149.376 149.998 L 147.917 147.500 148.583 150 M 200.900 151.118 C 195.595 154.876, 184.667 165.348, 181.718 169.500 C 180.546 171.150, 183.041 168.852, 187.263 164.393 C 191.485 159.934, 197.428 154.571, 200.470 152.476 C 205.484 149.023, 206.668 148, 205.650 148 C 205.458 148, 203.320 149.403, 200.900 151.118 M 100.475 155.642 C 96.939 163.951, 94.941 169.274, 95.245 169.579 C 95.420 169.754, 97.218 166.001, 99.240 161.240 C 101.262 156.479, 102.736 152.403, 102.517 152.183 C 102.297 151.964, 101.378 153.520, 100.475 155.642 M 311.206 155.917 C 313.794 158.206, 318.294 162.657, 321.206 165.806 C 324.118 168.955, 325.842 170.625, 325.038 169.516 C 322.326 165.778, 312.524 155.863, 309.500 153.800 C 307.850 152.674, 308.618 153.627, 311.206 155.917 M 377.719 158.500 C 376.236 161.525, 375.234 164, 375.494 164 C 375.754 164, 377.148 161.668, 378.592 158.819 C 380.813 154.436, 381.368 153.906, 382.192 155.379 C 382.729 156.338, 382.878 157.882, 382.524 158.811 C 382.017 160.145, 382.140 160.243, 383.114 159.277 C 384.061 158.337, 384.079 157.469, 383.194 155.527 C 382.561 154.137, 381.677 153, 381.230 153 C 380.783 153, 379.203 155.475, 377.719 158.500 M 124.954 156.282 C 122.955 157.857, 119.999 162.151, 120.004 163.473 C 120.006 164.038, 120.867 163.090, 121.918 161.367 C 122.969 159.643, 124.867 157.506, 126.137 156.617 C 127.406 155.728, 128.007 155.014, 127.473 155.032 C 126.938 155.049, 125.804 155.612, 124.954 156.282 M 128.079 157.842 C 128.036 158.581, 127.100 160.329, 126 161.727 C 123.352 165.093, 123.454 169.160, 126.250 171.677 C 129.598 174.690, 131.806 175.152, 134.992 173.504 C 137.623 172.143, 139.835 168.501, 138.711 167.378 C 138.452 167.119, 137.972 167.976, 137.644 169.282 C 136.961 172.003, 132.864 174.244, 130.262 173.321 C 124.828 171.393, 123.432 166.262, 127.080 161.625 C 128.224 160.171, 128.935 158.423, 128.659 157.740 C 128.287 156.818, 128.138 156.844, 128.079 157.842 M 245.250 158.031 C 244.012 158.529, 243 159.202, 243 159.527 C 243 159.852, 243.514 159.800, 244.142 159.412 C 244.771 159.024, 247.808 158.381, 250.892 157.984 C 256.414 157.273, 256.431 157.261, 252 157.195 C 249.525 157.157, 246.488 157.534, 245.250 158.031 M 261.703 158.049 C 264.015 158.506, 266.828 159.373, 267.953 159.975 C 269.079 160.577, 270 160.807, 270 160.484 C 270 159.399, 263.089 156.999, 260.282 157.110 C 258.153 157.193, 258.487 157.414, 261.703 158.049 M 240.450 160.938 C 239.928 161.453, 238.150 162.575, 236.500 163.431 C 234.031 164.712, 233.867 164.989, 235.576 164.994 C 236.717 164.997, 238.708 163.875, 240 162.500 C 242.184 160.176, 242.566 158.850, 240.450 160.938 M 272.750 163.072 C 273.988 164.478, 275 165.825, 275.001 166.064 C 275.001 166.304, 265.543 166.370, 253.981 166.211 C 242.420 166.052, 232.325 166.277, 231.547 166.711 C 230.770 167.145, 240.014 167.363, 252.091 167.196 L 274.049 166.891 275.892 171.007 C 277.550 174.712, 277.794 174.897, 278.326 172.862 C 278.986 170.338, 276.418 165.511, 272.782 162.441 L 270.500 160.514 272.750 163.072 M 380.035 162.934 C 378.388 166.011, 378.805 167, 381.750 167.006 C 383.262 167.010, 385.707 167.642, 387.182 168.412 C 389.406 169.572, 389.776 169.579, 389.344 168.454 C 389.057 167.707, 386.838 166.798, 384.411 166.434 C 379.558 165.707, 379.554 165.702, 381.035 162.934 C 381.605 161.870, 381.845 161, 381.570 161 C 381.295 161, 380.605 161.870, 380.035 162.934 M 140.250 163.085 C 139.012 163.553, 138.007 164.513, 138.015 165.218 C 138.026 166.072, 138.276 166.142, 138.765 165.427 C 139.169 164.837, 140.287 164.064, 141.250 163.708 C 142.688 163.178, 142.999 163.636, 142.996 166.281 C 142.991 170.419, 139.720 175.776, 136.434 177.025 C 130.692 179.208, 124.216 177.123, 121.565 172.237 C 120.748 170.732, 120.062 169.962, 120.040 170.527 C 119.895 174.248, 126.779 179, 132.315 179 C 138.236 179, 144 172.641, 144 166.109 C 144 162.549, 143.256 161.949, 140.250 163.085 M 368.750 167.566 C 364.016 170.030, 363.254 171.275, 364.896 173.866 C 365.568 174.927, 366.180 174.977, 367.631 174.091 C 369.430 172.993, 369.426 172.961, 367.536 173.225 C 366.416 173.382, 365.436 172.844, 365.256 171.972 C 365.050 170.980, 366.794 169.509, 370.219 167.783 C 373.124 166.319, 375.050 165.115, 374.500 165.107 C 373.950 165.100, 371.363 166.206, 368.750 167.566 M 222.750 167.706 C 223.988 167.944, 226.012 167.944, 227.250 167.706 C 228.488 167.467, 227.475 167.272, 225 167.272 C 222.525 167.272, 221.512 167.467, 222.750 167.706 M 207 170.500 C 202.332 172.298, 204.349 172.332, 210 170.552 C 212.475 169.772, 213.600 169.138, 212.500 169.143 C 211.400 169.148, 208.925 169.759, 207 170.500 M 374 170.606 C 372.383 171.597, 372.207 171.886, 373.500 171.425 C 376.061 170.511, 377.398 170.491, 383.500 171.281 C 386.505 171.669, 387.502 171.605, 386 171.119 C 380.201 169.246, 376.480 169.087, 374 170.606 M 411.157 169.500 C 411.154 170.050, 411.759 172.075, 412.500 174 C 413.241 175.925, 413.862 176.825, 413.879 176 C 413.896 175.175, 413.292 173.150, 412.536 171.500 C 411.781 169.850, 411.160 168.950, 411.157 169.500 M 93.091 175.091 C 92.415 177.348, 92.045 179.379, 92.270 179.604 C 92.495 179.829, 93.233 178.166, 93.909 175.909 C 94.585 173.652, 94.955 171.621, 94.730 171.396 C 94.505 171.171, 93.767 172.834, 93.091 175.091 M 167.815 176.304 C 164.591 181.455, 159.687 193.021, 160.418 193.751 C 160.712 194.046, 161.224 193.434, 161.555 192.393 C 162.809 188.448, 166.533 180.354, 168.794 176.656 C 170.087 174.541, 170.986 172.653, 170.793 172.460 C 170.600 172.266, 169.260 173.996, 167.815 176.304 M 294.676 174.074 C 293.727 177.623, 294.049 179.925, 295.086 177 C 295.788 175.018, 295.873 175.329, 295.497 178.500 C 295.236 180.700, 295.017 183.738, 295.011 185.250 C 295 187.967, 294.922 188, 288.500 188 L 282 188 281.930 183.750 C 281.891 181.412, 281.432 178.600, 280.909 177.500 C 280.081 175.757, 280.024 175.821, 280.466 178 C 280.745 179.375, 280.979 182.412, 280.986 184.750 L 281 189 288.500 189 L 296 189 296.136 184.250 C 296.215 181.510, 296.468 180.547, 296.735 181.973 C 297.189 184.403, 302 191.035, 302 189.232 C 302 188.725, 301.147 187.538, 300.104 186.595 C 299.062 185.651, 297.900 182.822, 297.523 180.308 C 297.146 177.793, 296.498 174.816, 296.082 173.692 C 295.358 171.737, 295.297 171.753, 294.676 174.074 M 308.243 176.078 C 313.481 180.568, 315.686 186.010, 316.215 195.750 C 316.372 198.637, 316.880 201, 317.344 201 C 318.402 201, 317.326 192.155, 315.445 185.389 C 314.392 181.600, 312.863 179.207, 309.535 176.139 C 307.065 173.862, 304.697 172.003, 304.272 172.006 C 303.848 172.010, 305.634 173.842, 308.243 176.078 M 177.195 175.750 C 174.674 179.321, 169.449 189.796, 168.591 193 C 168.223 194.375, 169.436 192.350, 171.286 188.500 C 173.137 184.650, 175.860 179.588, 177.338 177.250 C 180.327 172.523, 180.225 171.458, 177.195 175.750 M 196.061 176.564 C 191.693 180.510, 187.952 187.316, 188.089 191.066 C 188.148 192.660, 188.623 191.887, 189.466 188.828 C 190.974 183.353, 193.814 179.080, 198.287 175.554 C 200.054 174.162, 201.164 173.017, 200.753 173.011 C 200.342 173.005, 198.231 174.604, 196.061 176.564 M 328.900 176 C 330.127 177.925, 332.677 182.637, 334.566 186.472 C 336.455 190.306, 337.994 192.781, 337.986 191.972 C 337.968 190.066, 330.330 175.955, 328.259 174 C 327.384 173.175, 327.673 174.075, 328.900 176 M 278 177.257 C 278 178.231, 273.898 178.444, 259.750 178.205 C 249.713 178.035, 237.450 178.257, 232.500 178.698 C 225.771 179.298, 230.502 179.500, 251.249 179.500 C 277.010 179.500, 278.998 179.375, 278.999 177.750 C 279 176.787, 278.775 176, 278.500 176 C 278.225 176, 278 176.565, 278 177.257 M 220.500 181.062 C 222.018 181.790, 221.605 181.889, 218.786 181.472 C 216.177 181.086, 213.899 181.521, 211.130 182.934 C 207.178 184.950, 202.997 189.298, 203.004 191.385 C 203.006 191.998, 203.915 191.011, 205.024 189.192 C 206.189 187.282, 208.829 185.072, 211.271 183.964 C 216.614 181.538, 218.764 181.379, 216.571 183.571 C 215.707 184.436, 215.007 185.898, 215.015 186.821 C 215.025 187.973, 215.426 187.716, 216.292 186.005 C 217.584 183.452, 220.614 182.338, 226.867 182.118 C 229.906 182.012, 230.169 182.219, 229.578 184.250 C 229.217 185.488, 228.721 188.075, 228.475 190 C 228.219 192.002, 228.714 191.018, 229.633 187.703 C 230.516 184.514, 231.072 181.764, 230.869 181.592 C 230.666 181.419, 227.800 181.013, 224.500 180.690 C 220.315 180.279, 219.105 180.392, 220.500 181.062 M 415.083 182 C 415.058 182.825, 415.694 185.750, 416.495 188.500 L 417.951 193.500 417.348 189 C 416.702 184.179, 415.159 179.411, 415.083 182 M 89.204 188.938 C 88.542 191.806, 88.045 195.131, 88.100 196.326 C 88.156 197.522, 88.836 195.592, 89.613 192.038 C 90.390 188.484, 90.886 185.159, 90.717 184.650 C 90.547 184.140, 89.866 186.069, 89.204 188.938 M 120.987 191.054 C 120.320 193.834, 119.967 196.301, 120.203 196.536 C 120.438 196.772, 121.206 194.722, 121.908 191.982 C 123.400 186.160, 125.351 185.245, 124.535 190.750 C 124.121 193.540, 124.219 193.988, 124.919 192.500 C 126.571 188.987, 126.194 186, 124.100 186 C 122.643 186, 121.916 187.180, 120.987 191.054 M 380.070 186.750 C 380.109 187.162, 380.568 188.400, 381.091 189.500 C 381.976 191.364, 382.012 191.347, 381.614 189.250 C 381.344 187.827, 381.678 187, 382.522 187 C 383.324 187, 384.348 189.197, 385.089 192.506 C 385.767 195.535, 386.514 197.819, 386.750 197.584 C 386.985 197.348, 386.616 194.645, 385.930 191.578 C 384.850 186.751, 384.366 186, 382.341 186 C 381.053 186, 380.032 186.338, 380.070 186.750 M 350.096 188 C 350.060 188.275, 350.939 191.200, 352.050 194.500 C 353.161 197.800, 353.850 199.085, 353.581 197.356 C 353.141 194.522, 350.259 186.785, 350.096 188 M 213.112 195.277 C 212.500 198.790, 212.048 203.202, 212.107 205.082 C 212.167 206.962, 212.833 204.254, 213.588 199.064 C 215.147 188.352, 214.800 185.587, 213.112 195.277 M 382.529 195 C 382.949 196.925, 383.857 202.100, 384.547 206.500 C 385.345 211.584, 385.838 213.157, 385.901 210.815 C 386.005 206.950, 383.371 193.014, 382.356 192.056 C 382.032 191.750, 382.110 193.075, 382.529 195 M 153 197.500 C 152.298 200.007, 151.953 202.287, 152.234 202.567 C 152.514 202.847, 153.271 200.980, 153.917 198.417 C 155.444 192.349, 154.661 191.566, 153 197.500 M 201.802 196.572 C 201.572 198.537, 201.677 202.024, 202.033 204.322 C 202.547 207.634, 202.694 206.894, 202.743 200.750 C 202.809 192.394, 202.467 190.876, 201.802 196.572 M 187.336 201 C 187.336 205.125, 187.513 206.813, 187.728 204.750 C 187.944 202.688, 187.944 199.313, 187.728 197.250 C 187.513 195.188, 187.336 196.875, 187.336 201 M 157.531 201.874 C 156.592 205.707, 156.036 209.666, 156.296 210.671 C 156.660 212.083, 156.794 211.963, 156.884 210.144 C 156.948 208.849, 157.700 205.086, 158.556 201.784 C 159.412 198.481, 159.916 195.582, 159.675 195.342 C 159.435 195.102, 158.470 198.041, 157.531 201.874 M 303.232 198 C 303.232 199.925, 303.438 200.713, 303.689 199.750 C 303.941 198.787, 303.941 197.213, 303.689 196.250 C 303.438 195.287, 303.232 196.075, 303.232 198 M 339.042 196.083 C 339.296 198.608, 342.869 210.985, 342.915 209.500 C 342.984 207.234, 340.422 197.089, 339.563 196.230 C 339.253 195.920, 339.019 195.854, 339.042 196.083 M 165.020 202.917 C 164.357 205.681, 164 208.500, 164.227 209.181 C 164.454 209.862, 165.171 207.775, 165.820 204.543 C 167.278 197.283, 166.669 196.045, 165.020 202.917 M 348.170 200.500 C 348.154 201.600, 348.527 203.400, 349 204.500 C 350.095 207.048, 350.095 204.419, 349 201 C 348.356 198.990, 348.194 198.892, 348.170 200.500 M 387.518 203 C 388.938 216.360, 389.243 227, 388.206 227 C 387.603 227, 386.941 224.863, 386.735 222.250 L 386.360 217.500 386.180 222.250 L 386 227 373.117 227 L 360.235 227 359.525 234.574 C 359.135 238.740, 359.027 242.361, 359.286 242.619 C 359.545 242.878, 360.075 239.695, 360.464 235.545 L 361.171 228 373.512 228 C 384.425 228, 385.906 228.203, 386.311 229.750 C 386.746 231.417, 386.774 231.417, 386.884 229.750 C 386.948 228.787, 387.450 228, 388 228 C 389.817 228, 388.998 241.279, 386.364 254.500 C 386.035 256.150, 386.053 257.228, 386.404 256.896 C 387.501 255.857, 389.997 239.780, 389.999 233.750 L 390 228 403.500 228 L 417 228 417 231.949 C 417 234.121, 416.311 241.156, 415.468 247.584 C 414.626 254.011, 414.108 259.442, 414.319 259.652 C 414.986 260.319, 417.053 246.011, 417.689 236.326 L 418.302 227 404.304 227 L 390.306 227 389.635 216.250 C 389.266 210.338, 388.532 203.925, 388.002 202 C 387.077 198.637, 387.058 198.676, 387.518 203 M 121.650 202.708 C 121.321 204.244, 120.746 210.338, 120.373 216.250 L 119.694 227 104.347 227 L 89 227 89.074 234.250 C 89.115 238.238, 89.524 243.525, 89.984 246 C 90.531 248.949, 90.629 246.622, 90.267 239.250 L 89.715 228 103.358 228 L 117 228 117.074 234.250 C 117.115 237.688, 117.510 242.525, 117.952 245 C 118.464 247.870, 118.563 245.607, 118.226 238.750 C 117.589 225.835, 119.373 223.799, 120.416 236.250 C 120.796 240.787, 121.525 246.075, 122.036 248 C 122.854 251.080, 122.902 250.899, 122.435 246.500 C 122.144 243.750, 121.636 238.463, 121.308 234.750 L 120.710 228 133.300 228 L 145.890 228 146.265 232.750 L 146.640 237.500 146.820 232.250 L 147 227 134 227 L 121 227 121 221.572 C 121 218.587, 121.480 212.692, 122.067 208.473 C 123.111 200.965, 122.837 197.176, 121.650 202.708 M 225.469 210.619 C 225.071 216.460, 225.140 228.047, 225.622 236.369 C 226.495 251.412, 226.500 251.350, 226.500 225.750 C 226.500 211.588, 226.431 200, 226.346 200 C 226.262 200, 225.867 204.779, 225.469 210.619 M 419.633 206.248 C 420.330 215.202, 420.335 235.923, 419.642 244.570 C 419.191 250.202, 419.262 250.751, 420.018 247.500 C 421.208 242.390, 421.204 209.929, 420.012 204 C 419.230 200.109, 419.179 200.412, 419.633 206.248 M 117.906 205.250 C 117.854 206.488, 117.517 211.640, 117.156 216.701 C 116.795 221.761, 116.781 225.586, 117.124 225.201 C 117.906 224.324, 119.258 203, 118.532 203 C 118.239 203, 117.958 204.012, 117.906 205.250 M 355.500 225.487 C 355.500 236.920, 355.812 244.525, 356.192 242.387 C 356.573 240.249, 356.885 232.650, 356.885 225.500 C 356.885 218.350, 356.573 210.745, 356.192 208.600 C 355.812 206.454, 355.500 214.054, 355.500 225.487 M 85.491 216.288 C 85.106 221.946, 85.175 231.058, 85.645 236.538 C 86.423 245.606, 86.503 244.682, 86.529 226.250 C 86.545 215.113, 86.476 206, 86.375 206 C 86.275 206, 85.877 210.629, 85.491 216.288 M 350.232 210 C 350.232 211.925, 350.438 212.713, 350.689 211.750 C 350.941 210.787, 350.941 209.213, 350.689 208.250 C 350.438 207.287, 350.232 208.075, 350.232 210 M 188.484 211.885 C 188.770 213.747, 189.966 216.828, 191.143 218.731 C 193.230 222.108, 200.315 228, 202.290 228 C 202.834 228, 201.617 226.872, 199.587 225.494 C 194.258 221.878, 191.227 218.127, 189.489 213 C 188.219 209.253, 188.051 209.067, 188.484 211.885 M 203 210.023 C 203 210.476, 204.350 212.196, 206 213.846 C 208.666 216.512, 209 217.514, 209 222.840 C 209 226.699, 208.555 229.013, 207.750 229.338 C 207.003 229.639, 207.205 229.874, 208.250 229.921 C 209.755 229.989, 210 229.035, 210 223.100 C 210 216.548, 209.824 216.024, 206.500 212.700 C 204.575 210.775, 203 209.570, 203 210.023 M 149.616 219.750 C 149.285 225.113, 149.367 232.200, 149.797 235.500 C 150.403 240.148, 150.591 237.951, 150.632 225.750 C 150.661 217.088, 150.579 210, 150.450 210 C 150.321 210, 149.946 214.387, 149.616 219.750 M 211.409 226.500 C 211.408 235.850, 211.558 239.810, 211.743 235.299 C 211.928 230.789, 211.929 223.139, 211.745 218.299 C 211.562 213.460, 211.410 217.150, 211.409 226.500 M 343.394 225.500 C 343.412 236.649, 343.566 238.214, 344.155 233.183 C 344.561 229.708, 344.551 223.408, 344.132 219.183 C 343.459 212.386, 343.374 213.115, 343.394 225.500 M 155.300 218 C 155.300 221.025, 155.487 222.262, 155.716 220.750 C 155.945 219.238, 155.945 216.762, 155.716 215.250 C 155.487 213.738, 155.300 214.975, 155.300 218 M 351.212 224.110 C 351.096 229.946, 350.787 236.921, 350.527 239.610 L 350.055 244.500 351.061 239.690 C 351.614 237.045, 351.922 230.070, 351.746 224.190 L 351.425 213.500 351.212 224.110 M 227.206 224.820 L 227.500 231.500 256 231.523 L 284.500 231.546 256.250 231.258 L 228 230.969 228 225.074 L 228 219.178 259.750 219.722 C 277.212 220.021, 291.275 220.042, 291 219.768 C 290.725 219.495, 276.193 219.016, 258.706 218.705 L 226.912 218.140 227.206 224.820 M 162.320 227 C 162.320 230.575, 162.502 232.037, 162.723 230.250 C 162.945 228.463, 162.945 225.537, 162.723 223.750 C 162.502 221.963, 162.320 223.425, 162.320 227 M 302 222.500 C 306.566 224.258, 308.362 224.232, 304.500 222.464 C 302.850 221.708, 300.825 221.104, 300 221.121 C 299.175 221.138, 300.075 221.759, 302 222.500 M 311.252 227.112 C 313.315 228.976, 315.919 232.300, 317.037 234.500 C 318.205 236.796, 318.801 237.435, 318.437 236 C 317.628 232.816, 313.184 227.154, 309.975 225.218 C 308.555 224.361, 309.100 225.169, 311.252 227.112 M 155.286 233.500 C 155.294 236.250, 155.488 237.256, 155.718 235.736 C 155.947 234.216, 155.941 231.966, 155.704 230.736 C 155.467 229.506, 155.279 230.750, 155.286 233.500 M 291.500 233.315 C 300.567 235.696, 303.592 238.355, 304.919 245.110 C 305.631 248.735, 305.800 248.974, 305.890 246.484 C 306.150 239.339, 300.056 233.634, 291 232.544 L 286.500 232.002 291.500 233.315 M 384.664 241.250 C 384.321 244.688, 383.805 249.300, 383.519 251.500 C 383.040 255.185, 383.076 255.264, 383.980 252.500 C 385.088 249.114, 386.541 235, 385.783 235 C 385.511 235, 385.008 237.813, 384.664 241.250 M 156.070 242.583 C 156.109 244.188, 156.539 246.400, 157.026 247.500 C 157.617 248.835, 157.714 248.005, 157.317 245 C 156.616 239.700, 155.971 238.449, 156.070 242.583 M 164.162 243 C 164.154 245.424, 166.727 254.509, 166.853 252.500 C 166.887 251.950, 166.298 249.025, 165.543 246 C 164.788 242.975, 164.166 241.625, 164.162 243 M 357.192 249.750 C 356.528 252.912, 355.754 256.625, 355.472 258 C 355.190 259.375, 355.613 258.833, 356.412 256.795 C 357.878 253.054, 359.578 244, 358.814 244 C 358.586 244, 357.857 246.588, 357.192 249.750 M 148.162 247 C 148.154 249.424, 150.727 258.509, 150.853 256.500 C 150.887 255.950, 150.298 253.025, 149.543 250 C 148.788 246.975, 148.166 245.625, 148.162 247 M 320.320 251 C 320.320 254.575, 320.502 256.038, 320.723 254.250 C 320.945 252.463, 320.945 249.537, 320.723 247.750 C 320.502 245.963, 320.320 247.425, 320.320 251 M 348.077 250.077 C 346.621 256.866, 347.405 257.650, 349 251 C 349.674 248.191, 349.994 245.660, 349.710 245.377 C 349.427 245.094, 348.692 247.209, 348.077 250.077 M 212.103 249.566 C 212.008 253.304, 213.399 263.064, 214.623 267.250 C 214.905 268.212, 215.610 269, 216.190 269 C 216.905 269, 216.888 268.570, 216.139 267.668 C 215.531 266.935, 214.397 261.648, 213.620 255.918 C 212.822 250.039, 212.161 247.272, 212.103 249.566 M 340.182 250.182 C 339.588 252.521, 339.275 254.608, 339.485 254.819 C 339.696 255.029, 340.378 253.311, 341 251 C 341.622 248.689, 341.936 246.602, 341.696 246.363 C 341.457 246.124, 340.776 247.842, 340.182 250.182 M 187 253.557 C 187 260.198, 188.599 268.634, 190.025 269.515 C 190.453 269.780, 190.172 267.901, 189.402 265.339 C 188.631 262.778, 188 257.829, 188 254.341 L 188 248 194.500 248 L 201 248 201 253.288 C 201 260.264, 204.277 266.765, 209 269.157 C 210.925 270.132, 215.200 271.148, 218.500 271.416 C 223.310 271.806, 223.806 271.726, 221 271.012 C 218.348 270.337, 219.135 270.247, 224.250 270.640 C 229.475 271.042, 230.987 270.859, 230.943 269.830 C 230.827 267.155, 227.172 252.562, 227.103 254.500 C 227.063 255.600, 227.683 259.200, 228.480 262.500 C 229.277 265.800, 229.945 268.754, 229.964 269.064 C 229.984 269.375, 225.587 269.555, 220.193 269.464 C 205.918 269.223, 203.232 266.872, 202.241 253.750 L 201.731 247 194.366 247 L 187 247 187 253.557 M 152.071 249.324 C 151.965 252.033, 156.586 265.238, 160.022 272.043 C 164.480 280.875, 164.461 279.261, 159.994 269.729 C 157.862 265.180, 155.224 258.317, 154.130 254.479 C 153.037 250.640, 152.110 248.321, 152.071 249.324 M 158.040 250.879 C 157.985 252.770, 162.471 265.041, 165.119 270.242 C 171.548 282.869, 183.141 296.609, 194.361 304.897 C 201.428 310.118, 211.412 316.004, 213.168 315.986 C 213.901 315.978, 211.243 314.196, 207.261 312.026 C 197.407 306.654, 190.718 301.527, 182.931 293.376 C 172.248 282.193, 166.030 272.073, 160.911 257.536 C 159.354 253.116, 158.063 250.121, 158.040 250.879 M 305.168 255.185 C 304.920 260.629, 303.321 264.112, 299.402 267.744 L 295.901 270.989 296.201 266.244 L 296.500 261.500 289.514 261.500 C 283.558 261.500, 282.503 261.761, 282.365 263.270 C 282.252 264.507, 282.345 264.582, 282.675 263.520 C 283.032 262.370, 284.685 262, 289.459 262 L 295.771 262 295.571 270.750 L 295.371 279.500 296.824 274.273 C 297.801 270.758, 298.919 268.843, 300.238 268.424 C 302.990 267.551, 306.208 259.810, 305.727 255.223 L 305.336 251.500 305.168 255.185 M 352.091 256.091 C 351.415 258.348, 351.045 260.379, 351.270 260.604 C 351.495 260.829, 352.233 259.166, 352.909 256.909 C 353.585 254.652, 353.955 252.621, 353.730 252.396 C 353.505 252.171, 352.767 253.834, 352.091 256.091 M 123.671 256.500 C 124.554 262.334, 129.647 276.337, 134.127 285.250 C 139.800 296.537, 139.705 294.738, 133.995 282.750 C 131.309 277.113, 127.953 268.450, 126.536 263.500 C 123.410 252.580, 122.882 251.291, 123.671 256.500 M 88.591 258.382 C 88.905 261.067, 89.547 264.217, 90.018 265.382 C 91.381 268.758, 91.062 265.057, 89.467 259 L 88.019 253.500 88.591 258.382 M 167.440 256 C 168.983 261.601, 175.487 273.523, 180.959 280.782 C 186.781 288.503, 199.542 300.284, 204.740 302.735 C 206.818 303.714, 207.029 303.723, 205.595 302.768 C 204.546 302.071, 200.496 298.868, 196.595 295.651 C 184.539 285.711, 175.657 273.910, 170.335 260.762 C 167.626 254.071, 166.314 251.912, 167.440 256 M 120.415 257.500 C 122.016 264.400, 123.156 268.178, 123.525 267.808 C 124.001 267.332, 121.044 255.708, 120.267 255 C 119.966 254.725, 120.032 255.850, 120.415 257.500 M 334.321 265.095 C 332.022 269.993, 330.355 274, 330.617 274 C 331.298 274, 339.355 257.019, 338.888 256.567 C 338.675 256.360, 336.619 260.198, 334.321 265.095 M 92.652 261 C 93.298 265.821, 94.841 270.589, 94.917 268 C 94.942 267.175, 94.306 264.250, 93.505 261.500 L 92.049 256.500 92.652 261 M 384.221 262.487 C 383.627 265.230, 383.305 267.638, 383.505 267.838 C 384.106 268.440, 386.150 259.945, 385.709 258.676 C 385.484 258.029, 384.814 259.744, 384.221 262.487 M 416.180 263.457 C 415.531 266.689, 415.174 269.508, 415.387 269.721 C 416.007 270.340, 418.229 260.186, 417.773 258.819 C 417.546 258.138, 416.829 260.225, 416.180 263.457 M 342.511 265.789 C 329.746 295.327, 301.637 316.889, 268.681 322.423 C 263.780 323.246, 261.903 323.834, 264 323.891 C 268.883 324.023, 282.117 320.700, 290.778 317.165 C 313.225 308.006, 333.676 288.246, 343.495 266.229 C 345.033 262.780, 346.094 259.760, 345.851 259.518 C 345.609 259.276, 344.106 262.098, 342.511 265.789 M 378.876 267.767 C 377.432 272.020, 375.936 276.400, 375.550 277.500 C 374.906 279.337, 374.943 279.353, 376.004 277.697 C 377.594 275.215, 382.160 261.976, 381.796 260.905 C 381.633 260.426, 380.319 263.514, 378.876 267.767 M 152.075 262 C 152.071 263.441, 154.892 269.166, 154.965 267.865 C 154.984 267.515, 154.343 265.715, 153.539 263.865 C 152.736 262.014, 152.077 261.175, 152.075 262 M 352.200 266.200 C 351.002 269.035, 350.181 271.514, 350.375 271.708 C 350.569 271.902, 351.720 269.753, 352.933 266.933 C 354.147 264.113, 354.968 261.635, 354.759 261.425 C 354.549 261.216, 353.398 263.365, 352.200 266.200 M 411.588 267.588 C 410.668 271.251, 410.101 274.434, 410.327 274.660 C 410.553 274.887, 411.492 272.075, 412.412 268.412 C 413.332 264.749, 413.899 261.566, 413.673 261.340 C 413.447 261.113, 412.508 263.925, 411.588 267.588 M 348.014 267.466 C 342.615 280.769, 327.286 299.407, 313 310.042 C 308.383 313.479, 298.321 318.839, 287 323.894 L 284.500 325.011 287 324.450 C 291.974 323.335, 307.656 315.041, 314.500 309.905 C 324.251 302.587, 333.944 292.397, 340.444 282.627 C 345.753 274.649, 351.528 263.195, 350.673 262.340 C 350.447 262.113, 349.250 264.420, 348.014 267.466 M 317.120 266.544 C 316.387 268.571, 314.257 271.924, 312.385 273.995 C 307.176 279.761, 294.408 284.503, 293.225 281.111 C 292.959 280.347, 293.184 279.996, 293.726 280.331 C 294.323 280.700, 294.507 279.871, 294.192 278.227 L 293.674 275.514 292.413 279.007 C 290.876 283.265, 290.694 285.020, 292 283 C 292.646 282, 292.974 281.917, 292.985 282.750 C 293.006 284.524, 295.097 284.310, 301.631 281.865 C 304.770 280.691, 309.244 277.973, 311.574 275.825 C 315.768 271.959, 319.454 265.863, 318.795 263.884 C 318.607 263.320, 317.853 264.517, 317.120 266.544 M 280.526 270.500 C 280.048 273.278, 279.474 274.663, 279.234 273.617 C 278.934 272.309, 278.043 273.530, 276.316 277.617 C 274.949 280.853, 273.802 284.175, 273.769 285 C 273.702 286.634, 268.248 292, 266.653 292 C 266.111 292, 265.941 292.274, 266.276 292.609 C 267.396 293.729, 273.205 288.746, 276.097 284.185 C 278.105 281.020, 278.790 278.905, 278.398 277.088 C 277.987 275.189, 278.103 274.878, 278.834 275.922 C 279.599 277.014, 280.096 276.359, 280.974 273.096 C 281.603 270.761, 281.953 268.096, 281.752 267.175 C 281.551 266.254, 281 267.750, 280.526 270.500 M 91.081 268.645 C 90.968 270.239, 95.054 283.280, 95.520 282.813 C 95.729 282.604, 94.834 279.073, 93.531 274.967 C 92.229 270.860, 91.126 268.015, 91.081 268.645 M 124.039 269.635 C 124.018 270.260, 124.657 272.285, 125.461 274.135 C 126.264 275.986, 126.939 276.989, 126.961 276.365 C 126.982 275.740, 126.343 273.715, 125.539 271.865 C 124.736 270.014, 124.061 269.011, 124.039 269.635 M 380.280 274.231 C 379.171 277.129, 377.487 281.300, 376.539 283.500 C 375.590 285.700, 375.278 287.050, 375.845 286.500 C 377.150 285.233, 383.288 269.955, 382.720 269.386 C 382.487 269.153, 381.389 271.334, 380.280 274.231 M 156 271.609 C 156 273.636, 166.070 288.776, 171.838 295.422 C 181.411 306.451, 193.910 316.390, 205.717 322.362 C 213.670 326.384, 213.455 325.454, 205.449 321.204 C 201.571 319.145, 195.459 315.362, 191.866 312.799 C 182.145 305.862, 167.390 289.799, 161.250 279.467 C 158.363 274.609, 156 271.073, 156 271.609 M 192.515 273.281 C 193.481 274.811, 194.522 275.811, 194.830 275.503 C 195.137 275.196, 194.347 273.944, 193.074 272.722 L 190.759 270.500 192.515 273.281 M 412.603 276.646 C 410.904 282.087, 408.581 288.069, 404.599 297.250 C 403.705 299.313, 403.210 301, 403.499 301 C 404.844 301, 415.369 273.608, 414.745 271.734 C 414.572 271.216, 413.608 273.426, 412.603 276.646 M 229.750 272.723 C 231.537 272.945, 234.463 272.945, 236.250 272.723 C 238.037 272.502, 236.575 272.320, 233 272.320 C 229.425 272.320, 227.963 272.502, 229.750 272.723 M 269.250 272.716 C 270.762 272.945, 273.238 272.945, 274.750 272.716 C 276.262 272.487, 275.025 272.300, 272 272.300 C 268.975 272.300, 267.738 272.487, 269.250 272.716 M 96.073 273.572 C 95.970 275.082, 99.143 284.191, 99.609 283.724 C 99.821 283.513, 99.128 280.901, 98.070 277.920 C 97.012 274.939, 96.113 272.982, 96.073 273.572 M 347.425 276.157 C 346.478 277.996, 345.043 280.512, 344.237 281.750 C 343.430 282.988, 343.008 284, 343.299 284 C 344.148 284, 350.165 273.832, 349.632 273.298 C 349.365 273.032, 348.373 274.318, 347.425 276.157 M 324.170 281.750 L 318.935 288.500 323.535 283.500 C 327.700 278.973, 330.599 275, 329.738 275 C 329.555 275, 327.049 278.038, 324.170 281.750 M 197.722 278.074 C 198.944 279.347, 200.196 280.137, 200.503 279.830 C 200.811 279.522, 199.811 278.481, 198.281 277.515 L 195.500 275.759 197.722 278.074 M 407.615 280.615 C 406.730 283.213, 406.179 285.512, 406.390 285.724 C 406.602 285.935, 407.499 283.983, 408.385 281.385 C 409.270 278.787, 409.821 276.488, 409.610 276.276 C 409.398 276.065, 408.501 278.017, 407.615 280.615 M 127.032 278.275 C 126.965 279.902, 134.506 293.861, 139.848 302 C 147.453 313.585, 165.505 332.006, 169.250 332.003 C 170.762 332.001, 172 331.798, 172 331.550 C 172 331.303, 167.142 326.241, 161.205 320.300 C 155.267 314.360, 148.942 307.700, 147.149 305.500 L 143.890 301.500 146.655 305.500 C 150.328 310.813, 158.115 319.285, 165.267 325.750 C 169.710 329.765, 170.601 331, 169.057 331 C 166.334 331, 154.152 319.357, 146.561 309.500 C 138.836 299.468, 137.623 297.578, 131.797 286.500 C 129.193 281.550, 127.049 277.849, 127.032 278.275 M 275.695 281.513 C 274.781 283.431, 274.239 285, 274.490 285 C 275.175 285, 278.210 278.877, 277.753 278.420 C 277.536 278.203, 276.610 279.594, 275.695 281.513 M 165.455 281.500 C 168.580 286.568, 176.609 296.288, 181.168 300.523 C 190.183 308.895, 191.165 309.167, 182.884 300.999 C 178.146 296.325, 172.141 289.575, 169.540 286 C 164.248 278.726, 162.679 276.998, 165.455 281.500 M 208.500 282.528 C 210.700 283.253, 214.075 283.837, 216 283.825 C 218.559 283.810, 217.753 283.444, 213 282.464 C 204.896 280.792, 203.303 280.815, 208.500 282.528 M 96.071 284.230 C 95.956 285.414, 99.214 293.120, 99.646 292.687 C 99.864 292.470, 99.164 290.313, 98.092 287.896 C 97.019 285.478, 96.109 283.828, 96.071 284.230 M 223.264 284.718 C 224.784 284.947, 227.034 284.941, 228.264 284.704 C 229.494 284.467, 228.250 284.279, 225.500 284.286 C 222.750 284.294, 221.744 284.488, 223.264 284.718 M 370.695 287.513 C 369.781 289.431, 369.239 291, 369.490 291 C 370.175 291, 373.210 284.877, 372.753 284.420 C 372.536 284.203, 371.610 285.594, 370.695 287.513 M 100.508 287 C 101.438 290.073, 110.852 309, 111.450 309 C 111.882 309, 101.088 285.943, 100.215 285 C 99.960 284.725, 100.092 285.625, 100.508 287 M 245.299 285.745 C 250.139 285.929, 257.789 285.928, 262.299 285.743 C 266.810 285.558, 262.850 285.408, 253.500 285.409 C 244.150 285.410, 240.460 285.562, 245.299 285.745 M 338.675 289.750 C 334.870 294.921, 321.681 307.982, 315.861 312.342 C 313.860 313.841, 308.685 317.129, 304.361 319.649 C 300.037 322.169, 297.400 323.935, 298.500 323.574 C 304.376 321.645, 317.374 312.466, 326.394 303.875 C 335.037 295.643, 344.202 285, 342.647 285 C 342.385 285, 340.597 287.137, 338.675 289.750 M 220.467 288.937 C 221.302 290.552, 222.517 292.201, 223.166 292.602 C 223.815 293.004, 223.593 292.257, 222.673 290.943 C 221.753 289.630, 221 288.205, 221 287.777 C 221 287.350, 224.305 287, 228.345 287 C 234.528 287, 235.990 287.331, 237.584 289.093 C 238.625 290.244, 240.383 291.659, 241.489 292.239 C 242.595 292.818, 241.725 291.652, 239.555 289.646 C 235.673 286.059, 235.475 286, 227.279 286 L 218.949 286 220.467 288.937 M 287.092 290.351 C 281.905 298.744, 272.717 304.340, 261.523 305.925 C 255.769 306.740, 244.154 306.037, 239.500 304.592 C 238.400 304.250, 239.075 304.727, 241 305.651 C 243.437 306.821, 247.235 307.351, 253.500 307.395 C 268.389 307.500, 277.184 303.575, 286.320 292.748 C 288.526 290.135, 290.082 287.749, 289.779 287.446 C 289.476 287.143, 288.267 288.450, 287.092 290.351 M 404.162 289.543 C 402.487 293.220, 402.807 294.005, 404.618 290.662 C 405.464 289.100, 405.969 287.636, 405.741 287.407 C 405.512 287.179, 404.802 288.140, 404.162 289.543 M 313.879 293.077 L 309.500 297.154 314.250 293.365 C 316.863 291.281, 319 289.447, 319 289.288 C 319 288.517, 317.908 289.325, 313.879 293.077 M 372.039 292.295 C 368.701 297.608, 366.835 301, 367.252 301 C 367.889 301, 374.146 290.812, 373.751 290.417 C 373.571 290.238, 372.801 291.083, 372.039 292.295 M 245.367 294.072 C 247.851 295.613, 261.083 295.644, 263.550 294.114 C 265.324 293.014, 265.275 292.967, 263.012 293.595 C 259.836 294.477, 251.524 294.477, 247 293.595 C 244.103 293.030, 243.821 293.112, 245.367 294.072 M 100 294.362 C 100 295.447, 105.968 307, 106.529 307 C 106.804 307, 105.619 304.188, 103.896 300.750 C 100.630 294.234, 100 293.202, 100 294.362 M 140.467 296.937 C 141.302 298.552, 142.440 300.154, 142.995 300.497 C 143.549 300.840, 143.058 299.518, 141.903 297.560 C 139.370 293.267, 138.338 292.819, 140.467 296.937 M 225.521 295.896 C 227.939 298.825, 234.892 304.001, 236.400 303.996 C 237.005 303.994, 235.925 303.049, 234 301.897 C 232.075 300.744, 228.935 298.383, 227.021 296.650 C 224.869 294.701, 224.297 294.414, 225.521 295.896 M 399.695 299.513 C 398.781 301.431, 398.239 303, 398.490 303 C 399.175 303, 402.210 296.877, 401.753 296.420 C 401.536 296.203, 400.610 297.594, 399.695 299.513 M 305.500 299.531 C 302.940 301.629, 292.902 306.936, 284 310.898 L 281.500 312.011 284 311.454 C 288.140 310.532, 302.451 303.108, 306.094 299.994 C 310.222 296.464, 309.720 296.072, 305.500 299.531 M 360.188 304.262 C 356.004 309.963, 355.723 310.544, 358.864 307 C 362.441 302.964, 366.600 296.981, 365.807 297.012 C 365.638 297.019, 363.110 300.281, 360.188 304.262 M 361.358 308.250 C 358.741 311.688, 353.435 317.875, 349.568 322 C 345.437 326.407, 344.532 327.644, 347.375 325 C 354.134 318.712, 368.116 302, 366.617 302 C 366.342 302, 363.975 304.813, 361.358 308.250 M 209 305.284 C 209.825 306.110, 211.625 307.115, 213 307.517 C 216.177 308.447, 215.461 307.731, 211 305.518 C 208.300 304.179, 207.843 304.126, 209 305.284 M 397.584 310.416 C 391.406 321.463, 382.186 333.078, 370.129 345 C 357.503 357.485, 345.446 366.302, 329.567 374.659 C 317.922 380.787, 317.324 381.876, 328.772 376.104 C 351.714 364.539, 372.416 347, 388.562 325.451 C 395.155 316.651, 402.871 304, 401.645 304 C 401.385 304, 399.557 306.887, 397.584 310.416 M 394.880 308.250 C 394.225 309.488, 393.036 311.625, 392.239 313 C 390.848 315.398, 390.857 315.419, 392.471 313.500 C 394.464 311.130, 397.261 306, 396.561 306 C 396.291 306, 395.535 307.012, 394.880 308.250 M 109.532 312.750 C 111.029 315.363, 112.952 318.175, 113.805 319 C 114.915 320.074, 114.842 319.673, 113.547 317.586 C 112.553 315.984, 110.854 313.171, 109.771 311.336 C 108.688 309.501, 107.579 308, 107.306 308 C 107.033 308, 108.035 310.137, 109.532 312.750 M 216.517 309.027 C 217.078 309.935, 226.166 313.168, 226.688 312.645 C 226.880 312.453, 224.561 311.384, 221.534 310.269 C 218.508 309.154, 216.250 308.596, 216.517 309.027 M 194.500 311.472 C 197.737 314.291, 215.906 323.541, 220 324.453 L 222.500 325.011 220 323.874 C 206.475 317.724, 200.262 314.611, 196.241 311.971 C 192.240 309.344, 191.968 309.266, 194.500 311.472 M 113.452 312.500 C 121.513 325.795, 139.178 345.837, 150 353.964 C 155.374 358, 153.914 356.411, 144.550 348.036 C 135.362 339.818, 125.106 328.253, 118.800 319 C 113.445 311.141, 110.340 307.367, 113.452 312.500 M 344.750 321.455 C 339.387 326.608, 335 331.088, 335 331.412 C 335 332.783, 339.867 331.853, 341.079 330.250 C 342.206 328.761, 342.194 328.687, 341.002 329.750 C 340.231 330.438, 338.782 331, 337.781 331 C 336.583 331, 339.295 327.772, 345.731 321.536 C 351.104 316.330, 355.275 312.075, 355 312.079 C 354.725 312.083, 350.113 316.302, 344.750 321.455 M 230.741 314.028 C 231.973 314.523, 235.348 315.162, 238.241 315.447 C 243.422 315.958, 243.404 315.944, 237 314.544 C 229.512 312.907, 227.552 312.746, 230.741 314.028 M 273.852 313.482 C 273.587 313.746, 270.924 314.369, 267.935 314.865 C 264.535 315.429, 263.623 315.803, 265.500 315.864 C 267.150 315.917, 270.750 315.335, 273.500 314.570 C 276.250 313.805, 277.563 313.139, 276.417 313.089 C 275.271 313.040, 274.117 313.217, 273.852 313.482 M 215.591 316.920 C 216.773 318.010, 224.009 320.324, 224.549 319.785 C 224.777 319.557, 222.650 318.630, 219.823 317.726 C 216.996 316.822, 215.091 316.459, 215.591 316.920 M 249.280 316.736 C 251.909 316.943, 255.959 316.940, 258.280 316.731 C 260.601 316.521, 258.450 316.352, 253.500 316.355 C 248.550 316.358, 246.651 316.530, 249.280 316.736 M 383.782 324.750 C 371.356 341.353, 351.812 358.490, 334.250 368.180 C 326.092 372.682, 324.428 374.337, 331.834 370.584 C 350.301 361.226, 374.288 340.106, 386.814 322.175 C 393.138 313.123, 391.342 314.647, 383.782 324.750 M 118.123 325.522 C 127.596 338.712, 145.319 355.633, 159.979 365.484 C 169.053 371.581, 189.682 382.142, 195 383.413 L 197.500 384.011 195 382.851 C 169.598 371.065, 163.173 367.402, 150.500 357.480 C 141.327 350.299, 126.345 335.177, 120.053 326.750 C 114.988 319.966, 113.414 318.964, 118.123 325.522 M 233.500 322.570 C 236.250 323.335, 240.525 323.926, 243 323.882 C 246.598 323.818, 245.795 323.530, 239 322.443 C 228.436 320.755, 227.088 320.786, 233.500 322.570 M 251.762 324.707 C 253.006 324.946, 254.806 324.937, 255.762 324.687 C 256.718 324.437, 255.700 324.241, 253.500 324.252 C 251.300 324.263, 250.518 324.468, 251.762 324.707 M 215.610 326.456 C 217.321 327.246, 220.021 328.148, 221.610 328.461 C 224.083 328.948, 223.995 328.832, 221 327.658 C 219.075 326.903, 216.375 326.001, 215 325.653 C 213.120 325.177, 213.271 325.376, 215.610 326.456 M 226.500 326.528 C 228.700 327.253, 231.850 327.835, 233.500 327.821 C 235.422 327.804, 234.344 327.309, 230.500 326.441 C 223.025 324.755, 221.237 324.793, 226.500 326.528 M 275.500 326.523 C 272.750 327.230, 271.400 327.843, 272.500 327.885 C 273.600 327.927, 276.750 327.335, 279.500 326.570 C 285.777 324.824, 282.272 324.782, 275.500 326.523 M 287.500 327.085 C 284.750 328.147, 283.800 328.762, 285.390 328.453 C 288.534 327.842, 295.124 325.166, 293.500 325.159 C 292.950 325.157, 290.250 326.024, 287.500 327.085 M 265.250 328.689 C 266.212 328.941, 267.788 328.941, 268.750 328.689 C 269.712 328.438, 268.925 328.232, 267 328.232 C 265.075 328.232, 264.288 328.438, 265.250 328.689 M 226.741 330.028 C 227.973 330.523, 231.348 331.162, 234.241 331.447 C 239.422 331.958, 239.404 331.944, 233 330.544 C 225.512 328.907, 223.552 328.746, 226.741 330.028 M 249.280 329.736 C 251.909 329.943, 255.959 329.940, 258.280 329.731 C 260.601 329.521, 258.450 329.352, 253.500 329.355 C 248.550 329.358, 246.651 329.530, 249.280 329.736 M 273 330.619 L 266.500 331.950 272.157 331.477 C 275.268 331.217, 278.868 330.582, 280.157 330.066 C 283.276 328.816, 280.906 328.999, 273 330.619 M 247.789 332.741 C 251.248 332.937, 256.648 332.936, 259.789 332.738 C 262.930 332.540, 260.100 332.380, 253.500 332.382 C 246.900 332.384, 244.330 332.546, 247.789 332.741 M 178.986 339.023 C 177.619 341.235, 176.613 343.372, 176.750 343.773 C 177.330 345.460, 179.218 344.267, 181.136 341 C 182.365 338.908, 182.522 338.304, 181.527 339.500 C 180.612 340.600, 179.478 342.171, 179.007 342.992 C 178.535 343.812, 177.903 344.237, 177.601 343.935 C 176.725 343.058, 182.007 335.887, 183.054 336.533 C 183.574 336.855, 184 336.641, 184 336.059 C 184 333.669, 181.313 335.257, 178.986 339.023 M 318.441 338.433 C 316.788 339.653, 316.707 340.061, 317.897 341.183 C 319.050 342.271, 319.163 342.271, 318.547 341.183 C 318.097 340.391, 318.536 339.309, 319.650 338.465 C 320.667 337.694, 321.249 337.049, 320.941 337.032 C 320.634 337.014, 319.509 337.645, 318.441 338.433 M 321.010 339.488 C 320.010 340.693, 320.081 341.094, 321.382 341.593 C 322.265 341.932, 322.727 342.632, 322.408 343.149 C 322.089 343.665, 322.372 344.743, 323.036 345.544 C 323.727 346.376, 323.816 347, 323.244 347 C 322.694 347, 321.494 345.988, 320.578 344.750 C 319.095 342.746, 319.100 342.846, 320.617 345.657 C 321.624 347.521, 322.870 348.604, 323.661 348.300 C 325.313 347.666, 325.359 346.759, 323.817 345.217 C 323.166 344.566, 322.948 343.718, 323.333 343.333 C 323.718 342.948, 324.566 343.166, 325.217 343.817 C 326.638 345.238, 330 345.392, 330 344.035 C 330 342.476, 326.300 340.949, 324.322 341.691 C 322.787 342.267, 322.695 342.134, 323.741 340.845 C 324.913 339.402, 324.526 338, 322.956 338 C 322.565 338, 321.689 338.670, 321.010 339.488 M 189.153 342.564 C 188.477 344.047, 188.410 344.865, 188.992 344.505 C 190.298 343.698, 190.263 344.328, 188.827 347.481 C 187.977 349.345, 187.429 349.704, 186.842 348.778 C 186.262 347.864, 186.026 347.839, 186.015 348.691 C 185.977 351.639, 188.110 350.705, 190.035 346.931 C 191.197 344.654, 191.606 343.126, 190.944 343.535 C 190.171 344.012, 189.921 343.781, 190.245 342.889 C 190.523 342.125, 191.290 341.624, 191.949 341.775 C 192.609 341.926, 192.864 341.588, 192.515 341.025 C 191.478 339.347, 190.392 339.844, 189.153 342.564 M 308.513 343.979 C 308.180 344.518, 308.378 345.838, 308.954 346.914 C 310.465 349.737, 310.240 352, 308.448 352 C 307.594 352, 306.425 350.650, 305.850 349 C 305.275 347.350, 304.173 346, 303.402 346 C 301.727 346, 301.655 346.940, 303.045 350.685 C 304.582 354.825, 306.602 356.035, 310.001 354.850 C 313.752 353.542, 314.288 351.760, 312.371 346.970 C 310.785 343.006, 309.656 342.130, 308.513 343.979 M 309.546 345.750 C 312.305 352.105, 308.523 355.453, 304.949 349.818 C 303.205 347.067, 302.965 346.927, 303.545 349 C 304.562 352.635, 305.939 354, 308.587 354 C 311.932 354, 313.122 351.196, 311.457 347.236 C 310.709 345.456, 309.802 344, 309.441 344 C 309.081 344, 309.128 344.788, 309.546 345.750 M 201.500 346 C 202.118 347, 201.870 347.164, 200.523 346.647 C 199.032 346.075, 198.927 346.207, 199.921 347.405 C 200.870 348.549, 200.794 349.497, 199.563 351.879 C 197.635 355.606, 197.626 356, 199.465 356 C 200.961 356, 203.559 352.225, 202.672 351.339 C 202.403 351.070, 201.886 351.783, 201.524 352.925 C 201.162 354.066, 200.479 355, 200.007 355 C 199.535 355, 199.903 353.205, 200.824 351.010 C 201.746 348.816, 203.118 347.016, 203.872 347.010 C 204.918 347.002, 204.976 347.325, 204.113 348.364 C 203.213 349.448, 203.428 349.704, 205.158 349.614 C 207.886 349.471, 208.692 347.430, 206.291 346.741 C 205.306 346.458, 203.639 345.874, 202.586 345.444 C 201.128 344.847, 200.869 344.979, 201.500 346 M 288.660 351.259 C 287.070 352.422, 287.057 352.825, 288.484 356.509 C 289.366 358.785, 289.811 359.358, 289.519 357.843 C 289.238 356.381, 288.733 354.469, 288.397 353.593 C 288.061 352.717, 288.284 352, 288.893 352 C 289.502 352, 290 352.675, 290 353.500 C 290 354.410, 290.885 354.972, 292.250 354.930 C 294.397 354.863, 294.408 354.820, 292.500 354 L 290.500 353.141 292.500 352.971 C 294.220 352.824, 294.150 352.678, 292 351.925 C 289.722 351.127, 289.788 351.076, 292.750 351.351 C 294.538 351.518, 296 351.282, 296 350.827 C 296 349.537, 290.579 349.856, 288.660 351.259 M 226.345 354.543 C 226.019 355.392, 226.034 356.367, 226.376 356.710 C 226.719 357.053, 227.045 356.471, 227.100 355.417 C 227.177 353.924, 227.376 354.053, 228 356 L 228.801 358.500 228.900 355.750 C 229.007 352.799, 227.320 352.002, 226.345 354.543 M 270.500 355 C 270.160 355.550, 270.584 356, 271.441 356 C 272.298 356, 273 356.675, 273 357.500 C 273 358.503, 273.912 358.955, 275.750 358.864 C 277.950 358.755, 278.070 358.644, 276.352 358.308 C 275.171 358.077, 273.975 357.013, 273.696 355.944 C 273.150 353.856, 271.507 353.371, 270.500 355 M 237.831 356.250 C 236.978 356.938, 235.977 358.400, 235.607 359.500 C 235.130 360.920, 235.620 360.658, 237.294 358.598 C 239.194 356.261, 240.161 355.824, 242.260 356.350 C 246.722 357.470, 246.956 363.265, 242.611 365.020 C 240.986 365.677, 240.890 365.888, 242.193 365.937 C 243.978 366.003, 247 362.446, 247 360.277 C 247 358.387, 243.272 355, 241.191 355 C 240.196 355, 238.684 355.563, 237.831 356.250 M 260.250 357.080 C 261.212 357.641, 262.036 358.865, 262.079 359.800 C 262.130 360.895, 262.341 361.043, 262.673 360.216 C 263.272 358.726, 261.278 355.986, 259.628 356.030 C 259.007 356.047, 259.288 356.519, 260.250 357.080 M 157.500 359.481 C 161.090 362.539, 177.058 372.275, 177.598 371.735 C 177.807 371.526, 176.070 370.302, 173.739 369.015 C 171.407 367.728, 166.125 364.481, 162 361.800 C 157.875 359.119, 155.850 358.075, 157.500 359.481 M 239.250 357.662 C 238.563 357.940, 238 358.634, 238 359.206 C 238 359.833, 238.594 359.752, 239.500 359 C 240.703 358.002, 241.347 358.027, 242.750 359.128 C 244.336 360.371, 244.371 360.336, 243.128 358.750 C 241.700 356.929, 241.326 356.825, 239.250 357.662 M 271.130 359 C 270.976 362.749, 272.109 366.130, 273.377 365.708 C 273.995 365.502, 274.609 364.472, 274.742 363.417 C 274.967 361.627, 274.925 361.633, 274.106 363.500 C 273.162 365.653, 273.171 365.671, 271.655 358.500 C 271.320 356.917, 271.211 357.021, 271.130 359 M 280.015 359.083 C 280.024 360.413, 280.473 362.175, 281.014 363 C 281.706 364.055, 281.807 363.462, 281.355 361 C 280.564 356.687, 279.995 355.874, 280.015 359.083 M 225.079 358.890 C 225.036 359.654, 224.213 360.859, 223.250 361.568 C 221.584 362.795, 221.585 362.890, 223.263 363.540 C 225.364 364.355, 228.026 362.411, 227.937 360.128 C 227.894 359.026, 227.581 359.227, 226.969 360.750 C 226.471 361.988, 225.289 363, 224.341 363 C 222.762 363, 222.771 362.888, 224.446 361.663 C 225.452 360.927, 226.024 359.690, 225.717 358.913 C 225.249 357.730, 225.145 357.726, 225.079 358.890 M 256 361.430 C 256 364.193, 256.395 364.982, 257.750 364.921 C 258.795 364.874, 258.997 364.639, 258.250 364.338 C 257.563 364.060, 257 362.746, 257 361.417 C 257 358.184, 259.739 358.263, 260.305 361.512 C 260.707 363.813, 260.733 363.792, 260.622 361.262 C 260.531 359.205, 259.926 358.418, 258.250 358.180 C 256.277 357.900, 256 358.301, 256 361.430 M 274 360.383 C 274 360.594, 275.125 360.982, 276.500 361.245 C 277.875 361.508, 279 361.335, 279 360.861 C 279 360.388, 277.875 360, 276.500 360 C 275.125 360, 274 360.173, 274 360.383 M 254.150 363.750 C 254.018 366.611, 254.307 367, 256.566 367 C 260.106 367, 263.016 365.267, 262.921 363.215 C 262.857 361.829, 262.733 361.788, 262.271 363 C 261.501 365.024, 259.937 365.966, 257.316 365.985 C 255.697 365.996, 255.025 365.290, 254.716 363.250 C 254.329 360.690, 254.289 360.725, 254.150 363.750 M 181 373.440 C 181 373.951, 189.870 378.019, 190.877 377.970 C 191.786 377.925, 188.513 376.112, 184.491 374.432 C 182.571 373.629, 181 373.183, 181 373.440 M 320.500 375.066 C 318.300 376.134, 314.475 377.907, 312 379.005 C 309.525 380.104, 308.625 380.723, 310 380.382 C 313.100 379.611, 326.874 373.183, 325.500 373.149 C 324.950 373.135, 322.700 373.998, 320.500 375.066 M 202.500 382.393 C 204.150 383.147, 207.075 384.028, 209 384.349 C 212.026 384.855, 211.905 384.738, 208.110 383.490 C 201.509 381.319, 199.137 380.855, 202.500 382.393 M 301 382.500 C 299.075 383.241, 298.175 383.848, 299 383.848 C 299.825 383.848, 302.075 383.241, 304 382.500 C 305.925 381.759, 306.825 381.152, 306 381.152 C 305.175 381.152, 302.925 381.759, 301 382.500 M 309.500 383.535 C 306.999 384.740, 306.916 384.878, 309 384.369 C 311.834 383.677, 315.018 382.053, 313.500 382.076 C 312.950 382.084, 311.150 382.740, 309.500 383.535 M 217.500 386.570 C 220.250 387.335, 223.625 387.932, 225 387.897 C 226.375 387.861, 224.800 387.224, 221.500 386.480 C 213.700 384.723, 211.073 384.782, 217.500 386.570 M 285 386.500 C 281.975 387.202, 280.625 387.817, 282 387.868 C 283.375 387.920, 286.750 387.335, 289.500 386.570 C 295.747 384.832, 292.417 384.780, 285 386.500 M 298 387.066 C 294.451 388.272, 293.729 388.725, 295.964 388.341 C 300.024 387.645, 307.191 385.128, 305 385.169 C 304.175 385.184, 301.025 386.037, 298 387.066 M 205.500 387 C 206.600 387.473, 208.175 387.859, 209 387.859 C 209.945 387.859, 209.761 387.542, 208.500 387 C 207.400 386.527, 205.825 386.141, 205 386.141 C 204.055 386.141, 204.239 386.458, 205.500 387 M 274.250 388.689 C 275.212 388.941, 276.788 388.941, 277.750 388.689 C 278.712 388.438, 277.925 388.232, 276 388.232 C 274.075 388.232, 273.288 388.438, 274.250 388.689 M 219.500 390.523 C 222.250 391.230, 225.850 391.807, 227.500 391.806 C 229.150 391.805, 227.575 391.201, 224 390.464 C 215.817 388.776, 212.857 388.815, 219.500 390.523 M 244 390.124 C 249.225 390.521, 257.775 390.518, 263 390.117 C 270.968 389.506, 269.437 389.390, 253.500 389.395 C 237.569 389.400, 236.034 389.518, 244 390.124 M 282 390.500 C 277.398 391.389, 276.522 391.763, 279 391.782 C 280.925 391.796, 284.750 391.230, 287.500 390.523 C 293.897 388.878, 290.466 388.864, 282 390.500 M 232.750 392.706 C 233.988 392.944, 236.012 392.944, 237.250 392.706 C 238.488 392.467, 237.475 392.272, 235 392.272 C 232.525 392.272, 231.512 392.467, 232.750 392.706 M 269.762 392.707 C 271.006 392.946, 272.806 392.937, 273.762 392.687 C 274.718 392.437, 273.700 392.241, 271.500 392.252 C 269.300 392.263, 268.518 392.468, 269.762 392.707 M 247.789 393.741 C 251.248 393.937, 256.648 393.936, 259.789 393.738 C 262.930 393.540, 260.100 393.380, 253.500 393.382 C 246.900 393.384, 244.330 393.546, 247.789 393.741" stroke="none" fill="#b5b5b5" fill-rule="evenodd"/><path d="M 240 59.067 C 199.980 61.681, 158.643 81.616, 131.134 111.568 C 75.894 171.714, 71.182 261.659, 119.873 326.500 C 126.442 335.249, 141.299 350.276, 150.500 357.480 C 195.090 392.389, 253.832 402.213, 308.313 383.871 C 335.202 374.818, 364.711 354.037, 383.158 331.162 C 402.504 307.174, 415.151 277.906, 419.095 248 C 420.451 237.714, 420.397 213.206, 418.996 202.955 C 411.510 148.197, 377.678 100.999, 328 76.011 C 301.034 62.448, 272.466 56.947, 240 59.067 M 245 80.197 C 240.107 83.508, 238.099 89.346, 240.071 94.527 C 244.183 105.331, 259.817 105.108, 263.045 94.200 C 266.267 83.312, 254.216 73.960, 245 80.197 M 214.378 83.414 C 204.769 87.666, 206.571 97, 217 97 C 221.317 97, 222 97.270, 222 98.981 C 222 101.121, 218.359 102.589, 215.140 101.747 C 214.022 101.454, 212.829 102.044, 212.064 103.269 C 210.423 105.896, 212.035 106.964, 217.673 106.985 C 225.895 107.015, 231.021 99.021, 226 94 C 224.526 92.526, 222.667 92, 218.927 92 C 214.635 92, 213.905 91.730, 214.185 90.250 C 214.426 88.981, 215.659 88.417, 218.672 88.197 C 221.368 88, 223.044 87.327, 223.446 86.280 C 224.701 83.009, 219.214 81.275, 214.378 83.414 M 280.912 84.280 C 276.810 87.045, 275.034 90.307, 275.015 95.115 C 274.982 103.082, 285.255 109.610, 292.078 105.958 C 295.317 104.225, 292.814 101.004, 288.215 100.985 C 283.940 100.967, 282.746 100.348, 281.153 97.322 C 277.960 91.255, 285.881 85.426, 291.741 89.531 C 293.550 90.798, 294.279 90.842, 295.966 89.789 C 298.765 88.041, 298.140 86.877, 292.988 84.250 C 287.433 81.417, 285.152 81.423, 280.912 84.280 M 248.500 84.195 C 245.702 85.782, 245.033 87.027, 245.015 90.679 C 244.996 94.748, 247.276 97, 251.416 97 C 257.925 97, 260.529 89.134, 255.365 85.073 C 252.378 82.723, 251.332 82.589, 248.500 84.195 M 309.505 101.990 L 303.969 113.029 306.489 114.177 C 307.875 114.808, 309.132 115.139, 309.283 114.912 C 310.458 113.149, 319 94.802, 319 94.041 C 319 93.507, 318.109 92.594, 317.020 92.011 C 315.214 91.044, 314.557 91.917, 309.505 101.990 M 327.159 110.660 C 323.672 115.417, 320.611 119.851, 320.357 120.513 C 320.103 121.174, 322.956 123.997, 326.697 126.785 C 333.111 131.564, 333.605 131.759, 335.333 130.197 C 337.103 128.597, 337.085 128.470, 334.815 126.520 C 333.522 125.409, 331.122 123.515, 329.482 122.311 C 326.674 120.250, 326.599 120.021, 328.196 118.401 C 329.798 116.775, 330.091 116.832, 333.512 119.441 C 336.984 122.090, 337.189 122.127, 338.534 120.351 C 340.103 118.280, 340.375 117.002, 339.250 116.995 C 338.837 116.992, 337.163 115.921, 335.529 114.613 C 332.963 112.560, 332.741 112.017, 333.899 110.621 C 335.110 109.163, 335.716 109.355, 340.144 112.606 C 344.154 115.550, 345.317 115.982, 346.524 114.980 C 347.336 114.306, 348 113.358, 348 112.872 C 348 112.047, 335.091 102.041, 334 102.021 C 333.725 102.016, 330.647 105.903, 327.159 110.660 M 164 108.114 C 160.425 110.905, 157.329 113.354, 157.120 113.557 C 156.232 114.420, 171.273 132.952, 172.350 132.321 C 176.734 129.752, 185 122.623, 185 121.410 C 185 118.491, 181.968 118.853, 177.221 122.338 C 172.669 125.679, 172.338 125.771, 171.236 124.006 C 170.233 122.400, 170.591 121.717, 173.785 119.134 C 177.304 116.288, 177.409 116.037, 175.782 114.382 C 174.148 112.721, 173.882 112.765, 170.358 115.272 C 167.005 117.657, 166.540 117.753, 165.461 116.277 C 164.452 114.897, 165.016 114.055, 169.130 110.803 C 173.483 107.362, 173.862 106.752, 172.755 104.980 C 172.075 103.891, 171.290 103.009, 171.009 103.020 C 170.729 103.031, 167.575 105.323, 164 108.114 M 230.500 123.933 C 207.402 129.347, 189.369 140.661, 172.715 160.188 C 148.243 188.880, 142.324 233.695, 158.408 268.506 C 177.421 309.659, 220.456 334.259, 264.481 329.142 C 290.181 326.154, 309.938 316.420, 328.270 297.712 C 341.971 283.730, 351.190 266.378, 355.213 247 C 357.832 234.388, 357.289 210.608, 354.110 198.675 C 349.832 182.615, 341.102 167.388, 328.626 154.229 C 319.044 144.120, 310.487 137.787, 298.500 131.930 C 283.382 124.543, 275.753 122.856, 255.500 122.422 C 241.470 122.122, 237.102 122.386, 230.500 123.933 M 358.250 124.662 C 356.491 125.372, 356.689 126.755, 359.016 130.023 L 361.033 132.855 354.016 138.627 C 350.157 141.801, 347 144.673, 347 145.008 C 347 145.343, 347.618 146.462, 348.372 147.495 C 349.667 149.265, 350.161 149.022, 357.122 143.183 L 364.500 136.994 367.010 139.921 C 368.979 142.219, 369.894 142.639, 371.260 141.875 C 372.217 141.339, 373 140.435, 373 139.867 C 373 138.648, 361.016 123.963, 360.115 124.079 C 359.777 124.122, 358.938 124.385, 358.250 124.662 M 140.478 131.322 C 137.853 133.947, 137 135.645, 137 138.245 C 137 144.973, 142.641 146.907, 149.138 142.405 C 152.854 139.829, 155 139.859, 155 142.486 C 155 143.757, 151.082 147.462, 148.975 148.183 C 148.467 148.358, 148.320 149.525, 148.649 150.778 C 149.449 153.822, 152.439 152.959, 156.750 148.437 C 159.070 146.005, 159.996 144.095, 159.985 141.765 C 159.967 137.940, 159.286 136.713, 156.316 135.150 C 153.298 133.561, 152.791 133.653, 148.510 136.557 C 144.071 139.570, 141.271 139.231, 143.056 135.895 C 143.684 134.721, 145.077 133.531, 146.152 133.250 C 147.455 132.909, 148.004 132.037, 147.802 130.630 C 147.317 127.247, 144.264 127.536, 140.478 131.322 M 236.164 129.121 C 219.892 131.827, 200.710 141.363, 187.138 153.495 C 183.309 156.918, 172.212 170.258, 170.078 174.004 C 166.842 179.686, 162 190.036, 162 191.272 C 162 192.003, 161.612 193.028, 161.138 193.550 C 159.707 195.126, 157.047 207.388, 156.055 216.980 C 153.126 245.287, 162.963 272.665, 183.801 294.202 C 199.269 310.189, 217.213 319.197, 240.379 322.605 C 270.007 326.964, 299.721 317.049, 321.609 295.500 C 334.917 282.399, 344.150 266.388, 348.714 248.500 C 351.481 237.656, 351.181 211.269, 348.168 200.500 C 339.725 170.316, 317.062 145.284, 288 134.041 C 274.062 128.649, 251.744 126.531, 236.164 129.121 M 243.500 134.997 C 218.216 137.836, 194.209 151.914, 179.546 172.500 C 159.480 200.673, 156.761 238.458, 172.676 268 C 181.428 284.245, 198.408 301.092, 212 307.014 C 213.375 307.613, 216.300 308.956, 218.500 309.999 C 228.038 314.517, 238.740 316.437, 254 316.365 C 266.652 316.306, 269.647 315.959, 277.500 313.639 C 311.111 303.709, 335.119 278.021, 342.585 244 C 345.678 229.903, 344.115 206.449, 339.331 195.160 C 332.632 179.357, 328.452 172.653, 319.133 162.764 C 299.921 142.380, 271.307 131.875, 243.500 134.997 M 242.312 147.019 C 235.629 149.196, 227.101 156.039, 223.623 162.014 L 221.745 165.240 228.623 164.847 C 234.494 164.511, 236.231 163.947, 240.500 160.987 C 244.981 157.879, 246.320 157.481, 253.402 157.147 C 263.554 156.668, 268.154 158.102, 273.443 163.390 C 278.129 168.076, 282 177.487, 282 184.194 L 282 188 288.500 188 L 295 188 295 184.549 C 295 169.413, 285.535 153.125, 273.714 147.919 C 266.244 144.629, 250.993 144.192, 242.312 147.019 M 377.574 158.846 C 375.136 163.946, 374.093 165.028, 369.390 167.335 C 364.115 169.922, 363.208 171.204, 364.839 173.773 C 365.467 174.764, 366.867 174.506, 371.150 172.612 C 376.422 170.281, 376.945 170.234, 383.577 171.488 C 387.385 172.209, 390.629 172.677, 390.787 172.528 C 390.946 172.380, 390.544 171.093, 389.895 169.669 C 388.979 167.659, 387.741 166.934, 384.358 166.426 C 381.961 166.067, 380.002 165.487, 380.004 165.136 C 380.006 164.786, 380.944 162.963, 382.089 161.085 C 383.759 158.346, 383.960 157.209, 383.107 155.335 C 382.522 154.051, 381.666 153, 381.205 153 C 380.745 153, 379.110 155.631, 377.574 158.846 M 123.639 157.634 C 117.695 163.578, 118.439 172.859, 125.190 176.974 C 131.660 180.919, 138.983 178.800, 142.520 171.961 C 144.083 168.940, 144.516 163.422, 143.250 162.676 C 141.928 161.898, 137.896 163.925, 138.160 165.235 C 139.083 169.821, 134.273 174.745, 130.262 173.321 C 124.835 171.396, 123.432 166.263, 127.069 161.640 C 128.390 159.960, 128.908 158.285, 128.501 157.005 C 127.663 154.362, 126.799 154.474, 123.639 157.634 M 222.500 168.195 C 207.181 170.035, 197.946 174.054, 192.966 181.048 C 188.245 187.678, 186.565 202.813, 189.467 212.568 C 191.188 218.353, 196.659 224.466, 202.500 227.131 C 208.728 229.972, 209 229.780, 209 222.535 C 209 217.244, 208.661 215.889, 207.130 215.070 C 200.723 211.640, 199.873 193.221, 205.820 186.645 C 211.489 180.376, 222.202 178.541, 253.249 178.518 C 280.931 178.498, 279.522 178.951, 276.006 171.204 L 274.056 166.908 251.778 167.131 C 239.525 167.254, 226.350 167.733, 222.500 168.195 M 295.403 171.218 C 295.763 172.473, 296.558 175.975, 297.171 179 C 297.784 182.025, 299.151 185.461, 300.210 186.636 C 301.268 187.810, 302.660 191.541, 303.303 194.927 L 304.473 201.083 310.487 200.792 L 316.500 200.500 316.192 195.500 C 315.601 185.929, 313.385 180.421, 308.473 176.316 C 306.003 174.251, 301.905 171.746, 299.366 170.748 L 294.750 168.935 295.403 171.218 M 220.510 182.876 C 216.500 183.734, 215.446 186.302, 213.570 199.784 C 210.720 220.272, 212.477 264.066, 216.293 267.626 C 216.957 268.245, 220.365 269.031, 223.866 269.373 C 230.106 269.981, 230.219 269.949, 229.608 267.747 C 226.806 257.656, 225.700 245.917, 225.629 225.500 C 225.557 204.562, 226.472 195.008, 229.583 184.250 C 230.170 182.220, 229.904 182.012, 226.867 182.118 C 225.015 182.183, 222.154 182.525, 220.510 182.876 M 120.632 192.750 C 118.313 202.995, 117.102 211.733, 116.889 219.750 L 116.697 227 102.848 227 L 89 227 88.997 233.750 C 88.995 237.463, 89.951 246.125, 91.122 253 C 103.251 324.235, 159.824 379.071, 231.500 389.069 C 243.565 390.752, 266.176 390.526, 278.641 388.599 C 300.771 385.177, 325.883 375.308, 344.988 362.525 C 386.688 334.624, 414.379 286.842, 417.634 237.173 L 418.301 227 404.301 227 L 390.301 227 389.709 216.750 C 389.383 211.113, 388.128 201.887, 386.920 196.250 C 384.856 186.610, 384.578 186, 382.256 186 C 380.302 186, 379.933 186.365, 380.491 187.750 C 382.184 191.949, 385.039 208.297, 385.643 217.250 L 386.301 227 373.268 227 L 360.235 227 359.551 234.750 C 357.089 262.652, 346.448 284.119, 325.168 304.109 C 305.652 322.441, 285.706 330.674, 258.253 331.728 C 224.341 333.031, 199.892 323.218, 176.608 298.959 C 166.188 288.103, 158.502 276.517, 154.034 264.931 C 150.576 255.964, 147 239.271, 147 232.093 L 147 227 133.849 227 L 120.698 227 121.305 217.250 C 121.638 211.887, 122.654 203.900, 123.561 199.500 C 126.484 185.327, 126.453 186, 124.194 186 C 122.501 186, 121.904 187.131, 120.632 192.750 M 228 225.036 L 228 231 255.250 231.008 C 300.954 231.020, 306.028 233.069, 305.978 251.484 C 305.954 260.396, 303.600 267.357, 300.251 268.420 C 298.957 268.831, 297.754 270.927, 296.610 274.767 C 295.671 277.920, 294.655 281.082, 294.353 281.794 C 292.971 285.052, 307.514 279.131, 311.817 274.684 C 317.679 268.626, 319.497 262.859, 319.442 250.500 C 319.386 237.697, 317.364 232.013, 311.137 227.148 C 303.162 220.915, 298.962 220.350, 254.750 219.553 L 228 219.072 228 225.036 M 118.327 238.250 C 119.503 257.333, 127.294 280.997, 137.808 297.419 C 146.856 311.551, 164.954 331, 169.057 331 C 170.601 331, 169.710 329.765, 165.267 325.750 C 138.784 301.812, 123.284 270.821, 120.380 236.006 C 119.372 223.915, 117.566 225.889, 118.327 238.250 M 386.598 231.250 C 386.327 233.037, 385.846 237.841, 385.530 241.924 C 383.325 270.342, 367.270 301.608, 343.468 323.836 C 337.707 329.217, 336.306 331, 337.842 331 C 342.295 331, 361.318 310.113, 370.173 295.500 C 380.904 277.791, 388.983 251.073, 388.996 233.250 C 389 227.467, 387.377 226.113, 386.598 231.250 M 188 254.318 C 188 261.839, 190.169 269.543, 193.261 273.008 C 201.125 281.819, 210.855 283.949, 246.734 284.710 L 272.969 285.267 275.474 279.883 C 276.853 276.922, 277.985 274.050, 277.991 273.500 C 277.998 272.854, 269.957 272.607, 255.251 272.801 C 230.107 273.134, 214.399 271.901, 209.021 269.171 C 204.276 266.763, 201 260.276, 201 253.288 L 201 248 194.500 248 L 188 248 188 254.318 M 283 262.316 C 283 262.490, 282.515 265.257, 281.922 268.464 C 280.609 275.567, 277.225 283.423, 273.664 287.637 C 265.538 297.251, 245.692 298.060, 237.595 289.106 C 235.987 287.329, 234.544 287, 228.345 287 C 224.305 287, 221 287.382, 221 287.850 C 221 289.683, 227.220 297.147, 231.076 299.940 C 237.270 304.427, 243.811 306.193, 254.302 306.211 C 269.261 306.237, 277.997 302.192, 286.266 291.410 C 290.139 286.359, 294.172 275.515, 295.437 266.750 L 296.123 262 289.561 262 C 285.953 262, 283 262.142, 283 262.316 M 180.273 338.692 C 177.313 342.965, 176.808 344.001, 177.691 343.988 C 178.722 343.972, 183.298 336.965, 182.681 336.347 C 182.426 336.093, 181.343 337.148, 180.273 338.692 M 319.634 338.455 C 317.823 339.848, 317.833 339.994, 319.966 343.445 C 321.174 345.400, 322.632 347, 323.204 347 C 323.822 347, 323.725 346.373, 322.965 345.458 C 321.250 343.391, 323.324 340.924, 325.200 342.800 C 325.860 343.460, 327.097 343.984, 327.950 343.965 C 329.117 343.938, 329.006 343.629, 327.500 342.715 C 326.400 342.047, 325.500 340.600, 325.500 339.500 C 325.500 337.026, 322.246 336.446, 319.634 338.455 M 321.074 339.411 C 320.237 340.419, 320.215 341.015, 320.995 341.497 C 322.322 342.317, 325.199 340.130, 324.430 338.887 C 323.637 337.604, 322.415 337.795, 321.074 339.411 M 189.114 344.315 C 187.951 346.197, 187.005 348.358, 187.012 349.118 C 187.019 349.878, 188.154 348.523, 189.535 346.107 C 192.517 340.891, 192.162 339.384, 189.114 344.315 M 309.546 345.750 C 312.305 352.105, 308.523 355.453, 304.949 349.818 C 303.205 347.067, 302.965 346.927, 303.545 349 C 304.562 352.635, 305.939 354, 308.587 354 C 311.932 354, 313.122 351.196, 311.457 347.236 C 310.709 345.456, 309.802 344, 309.441 344 C 309.081 344, 309.128 344.788, 309.546 345.750 M 200.437 346.529 C 202.287 347.928, 202.299 348.150, 200.703 351.497 C 199.784 353.424, 199.392 355, 199.831 355 C 200.270 355, 201.376 353.435, 202.288 351.521 C 203.504 348.971, 204.422 348.187, 205.724 348.584 C 206.701 348.881, 205.732 348.197, 203.571 347.062 C 199.005 344.665, 197.673 344.438, 200.437 346.529 M 289.325 351.778 C 288.436 352.344, 288.425 353.552, 289.282 356.762 C 289.904 359.093, 290.801 361, 291.274 361 C 291.747 361, 291.839 360.068, 291.478 358.930 C 290.985 357.377, 291.325 356.728, 292.841 356.331 C 294.992 355.769, 296.376 353.417, 295.444 351.910 C 294.769 350.817, 290.966 350.734, 289.325 351.778 M 290 353.500 C 290 354.333, 290.889 355, 292 355 C 293.111 355, 294 354.333, 294 353.500 C 294 352.667, 293.111 352, 292 352 C 290.889 352, 290 352.667, 290 353.500 M 226.570 357.264 C 226.131 359.334, 225.036 361.458, 224.136 361.984 C 222.657 362.847, 222.671 362.942, 224.275 362.970 C 226.287 363.004, 228.282 358.727, 227.730 355.566 C 227.477 354.120, 227.129 354.629, 226.570 357.264 M 278 356.300 C 278 358.513, 277.549 359, 275.500 359 C 273.944 359, 273 358.433, 273 357.500 C 273 356.675, 272.610 356, 272.134 356 C 271.218 356, 272.305 363.638, 273.373 364.706 C 273.718 365.051, 274 364.133, 274 362.667 C 274 360.489, 274.458 360, 276.500 360 C 278.010 360, 279 360.571, 279 361.441 C 279 362.234, 279.407 363.134, 279.905 363.441 C 281.038 364.142, 280.078 355.859, 278.874 354.550 C 278.357 353.988, 278 354.702, 278 356.300 M 237.452 358.433 C 234.085 363.571, 240.990 368.119, 244.750 363.240 C 246.417 361.077, 246.326 359.468, 244.429 357.571 C 242.147 355.290, 239.280 355.644, 237.452 358.433 M 254.537 356.939 C 254.218 357.456, 254.249 359.706, 254.606 361.939 C 255.130 365.215, 255.666 365.997, 257.378 365.985 C 260.667 365.961, 262.250 364.485, 262.250 361.442 C 262.250 357.405, 256.371 353.973, 254.537 356.939 M 239.163 357.878 C 238.427 358.345, 237.977 359.800, 238.163 361.113 C 238.415 362.898, 239.127 363.500, 240.986 363.500 C 243.814 363.500, 244.882 360.768, 242.960 358.452 C 241.577 356.786, 241.019 356.701, 239.163 357.878 M 256 361.430 C 256 363.628, 256.481 364.994, 257.250 364.985 C 261.508 364.933, 262.413 358.772, 258.250 358.180 C 256.277 357.900, 256 358.301, 256 361.430" stroke="none" fill="#fafafa" fill-rule="evenodd"/></svg>